<?xml version="1.0" encoding="UTF-8" standalone="no"?>
<!-- Created with Inkscape (http://www.inkscape.org/) -->

<svg
   width="297mm"
   height="210mm"
   viewBox="0 0 297 210"
   version="1.1"
   id="svg3922"
   sodipodi:docname="formulas_1.svg"
   inkscape:version="1.2 (1:1.2.1+202207142221+cd75a1ee6d)"
   xmlns:inkscape="http://www.inkscape.org/namespaces/inkscape"
   xmlns:sodipodi="http://sodipodi.sourceforge.net/DTD/sodipodi-0.dtd"
   xmlns="http://www.w3.org/2000/svg"
   xmlns:svg="http://www.w3.org/2000/svg">
  <sodipodi:namedview
     id="namedview3924"
     pagecolor="#ffffff"
     bordercolor="#666666"
     borderopacity="1.0"
     inkscape:showpageshadow="2"
     inkscape:pageopacity="0.0"
     inkscape:pagecheckerboard="0"
     inkscape:deskcolor="#d1d1d1"
     inkscape:document-units="mm"
     showgrid="false"
     inkscape:zoom="0.56693536"
     inkscape:cx="441.84931"
     inkscape:cy="635.87496"
     inkscape:window-width="1920"
     inkscape:window-height="1059"
     inkscape:window-x="0"
     inkscape:window-y="0"
     inkscape:window-maximized="1"
     inkscape:current-layer="layer1" />
  <defs
     id="defs3919">
    <clipPath
       id="clipPath1861">
      <path
         d="m 45,10 h 16 v 7.625 H 45 Z m 0,0"
         id="path6347" />
    </clipPath>
    <clipPath
       id="clipPath2187">
      <path
         d="m 9,0 h 4 V 14.347656 H 9 Z m 0,0"
         id="path5823" />
    </clipPath>
    <clipPath
       id="clipPath3992">
      <path
         d="m 19,0 h 4 v 14.347656 h -4 z m 0,0"
         id="path5096" />
    </clipPath>
    <clipPath
       id="clipPath8278">
      <path
         d="m 47,10 h 5 v 7.625 h -5 z m 0,0"
         id="path9536" />
    </clipPath>
  </defs>
  <g
     inkscape:label="Layer 1"
     inkscape:groupmode="layer"
     id="layer1">
    <text
       xml:space="preserve"
       style="font-size:8.46667px;line-height:1.25;font-family:'FiraCode Nerd Font Mono';-inkscape-font-specification:'FiraCode Nerd Font Mono';letter-spacing:0px;word-spacing:0px;stroke-width:0.264583"
       x="64.971069"
       y="61.050274"
       id="text4169"><tspan
         sodipodi:role="line"
         id="tspan4167"
         style="font-size:8.46667px;stroke-width:0.264583"
         x="64.971069"
         y="61.050274">Possible rocket trajectories</tspan></text>
    <text
       xml:space="preserve"
       style="font-size:6.35px;line-height:1.25;font-family:'FiraCode Nerd Font Mono';-inkscape-font-specification:'FiraCode Nerd Font Mono';letter-spacing:0px;word-spacing:0px;stroke-width:0.264583"
       x="88.326828"
       y="88.336319"
       id="text4173"><tspan
         sodipodi:role="line"
         id="tspan4171"
         style="stroke-width:0.264583"
         x="88.326828"
         y="88.336319" /></text>
    <g
       inkscape:label=""
       transform="matrix(2.1761128,0,0,2.1761128,100.45613,126.85817)"
       id="g4243">
      <g
         id="surface1"
         transform="matrix(0.352778,0,0,0.352778,-0.275608,0.0831232)">
        <g
           style="fill:#000000;fill-opacity:1"
           id="g56">
          <g
             id="use54"
             transform="translate(0,12.679)">
            <path
               style="stroke:none"
               d="m 4.03125,-9.59375 c 0.015625,-0.0625 0.046875,-0.140625 0.046875,-0.21875 0,-0.140625 -0.140625,-0.140625 -0.171875,-0.140625 -0.015625,0 -0.71875,0.0625 -0.796875,0.0625 C 2.875,-9.875 2.65625,-9.84375 2.390625,-9.828125 2.03125,-9.796875 1.9375,-9.78125 1.9375,-9.53125 c 0,0.15625 0.109375,0.15625 0.3125,0.15625 0.703125,0 0.71875,0.125 0.71875,0.265625 0,0.09375 -0.03125,0.203125 -0.046875,0.25 L 0.84375,-0.5625 c -0.0625,0.21875 -0.0625,0.25 -0.0625,0.328125 0,0.328125 0.25,0.375 0.390625,0.375 0.25,0 0.4375,-0.1875 0.5,-0.34375 l 0.65625,-2.59375 c 0.0625,-0.3125 0.15625,-0.609375 0.21875,-0.9375 0.171875,-0.59375 0.171875,-0.609375 0.4375,-1.03125 C 3.25,-5.171875 3.90625,-6.03125 5,-6.03125 c 0.578125,0 0.78125,0.421875 0.78125,1 0,0.796875 -0.5625,2.359375 -0.875,3.21875 -0.125,0.34375 -0.203125,0.53125 -0.203125,0.796875 0,0.640625 0.453125,1.15625 1.140625,1.15625 1.328125,0 1.828125,-2.109375 1.828125,-2.1875 0,-0.078125 -0.0625,-0.140625 -0.140625,-0.140625 -0.125,0 -0.140625,0.046875 -0.21875,0.296875 -0.328125,1.140625 -0.859375,1.75 -1.4375,1.75 -0.140625,0 -0.359375,-0.015625 -0.359375,-0.46875 0,-0.375 0.171875,-0.84375 0.21875,-1 0.265625,-0.6875 0.90625,-2.375 0.90625,-3.203125 0,-0.875 -0.5,-1.515625 -1.59375,-1.515625 -0.8125,0 -1.53125,0.390625 -2.125,1.140625 z m 0,0"
               id="path125" />
          </g>
        </g>
        <g
           style="fill:#000000;fill-opacity:1"
           id="g60">
          <g
             id="use58"
             transform="translate(8.0860004,12.679)">
            <path
               style="stroke:none"
               d="m 4.65625,3.484375 c 0,-0.046875 0,-0.078125 -0.234375,-0.3125 -1.4375,-1.453125 -2.234375,-3.8125 -2.234375,-6.75 0,-2.78125 0.671875,-5.171875 2.328125,-6.859375 0.140625,-0.140625 0.140625,-0.15625 0.140625,-0.203125 0,-0.09375 -0.0625,-0.109375 -0.125,-0.109375 -0.1875,0 -1.359375,1.03125 -2.0625,2.4375 -0.734375,1.4375 -1.0625,2.984375 -1.0625,4.734375 0,1.28125 0.203125,2.984375 0.953125,4.53125 0.84375,1.71875 2.015625,2.640625 2.171875,2.640625 0.0625,0 0.125,-0.015625 0.125,-0.109375 z m 0,0"
               id="path129" />
          </g>
        </g>
        <g
           style="fill:#000000;fill-opacity:1"
           id="g64">
          <g
             id="use62"
             transform="translate(13.549,12.679)">
            <path
               style="stroke:none"
               d="m 2.890625,-5.765625 h 1.3125 c 0.265625,0 0.421875,0 0.421875,-0.265625 C 4.625,-6.1875 4.53125,-6.1875 4.25,-6.1875 H 2.984375 l 0.53125,-2.09375 c 0.0625,-0.203125 0.0625,-0.21875 0.0625,-0.328125 0,-0.21875 -0.1875,-0.359375 -0.375,-0.359375 -0.125,0 -0.453125,0.046875 -0.5625,0.5 l -0.5625,2.28125 h -1.34375 c -0.296875,0 -0.421875,0 -0.421875,0.28125 0,0.140625 0.109375,0.140625 0.375,0.140625 h 1.28125 l -0.953125,3.78125 c -0.109375,0.5 -0.15625,0.65625 -0.15625,0.84375 0,0.671875 0.46875,1.28125 1.28125,1.28125 1.4375,0 2.21875,-2.09375 2.21875,-2.1875 0,-0.09375 -0.0625,-0.140625 -0.140625,-0.140625 -0.03125,0 -0.09375,0 -0.109375,0.0625 -0.015625,0.015625 -0.03125,0.03125 -0.140625,0.265625 -0.296875,0.71875 -0.953125,1.71875 -1.78125,1.71875 -0.4375,0 -0.46875,-0.359375 -0.46875,-0.671875 0,-0.015625 0,-0.296875 0.046875,-0.46875 z m 0,0"
               id="path133" />
          </g>
        </g>
        <g
           style="fill:#000000;fill-opacity:1"
           id="g68">
          <g
             id="use66"
             transform="translate(18.622,12.679)">
            <path
               style="stroke:none"
               d="M 4.046875,-3.578125 C 4.046875,-4.65625 3.90625,-6.4375 3.09375,-8.109375 2.25,-9.828125 1.078125,-10.75 0.921875,-10.75 c -0.0625,0 -0.140625,0.01563 -0.140625,0.109375 0,0.04687 0,0.0625 0.25,0.3125 1.4375,1.453125 2.234375,3.8125 2.234375,6.75 0,2.78125 -0.671875,5.171875 -2.328125,6.859375 -0.15625,0.125 -0.15625,0.15625 -0.15625,0.203125 0,0.09375 0.078125,0.109375 0.140625,0.109375 0.1875,0 1.359375,-1.03125 2.0625,-2.4375 0.734375,-1.453125 1.0625,-3 1.0625,-4.734375 z m 0,0"
               id="path137" />
          </g>
        </g>
        <g
           style="fill:#000000;fill-opacity:1"
           id="g72">
          <g
             id="use70"
             transform="translate(28.073277,12.679)">
            <path
               style="stroke:none"
               d="m 9.6875,-4.640625 c 0.203125,0 0.453125,0 0.453125,-0.265625 0,-0.265625 -0.25,-0.265625 -0.453125,-0.265625 H 1.234375 c -0.203125,0 -0.453125,0 -0.453125,0.25 0,0.28125 0.234375,0.28125 0.453125,0.28125 z m 0,2.65625 c 0.203125,0 0.453125,0 0.453125,-0.25 0,-0.28125 -0.25,-0.28125 -0.453125,-0.28125 H 1.234375 c -0.203125,0 -0.453125,0 -0.453125,0.265625 0,0.265625 0.234375,0.265625 0.453125,0.265625 z m 0,0"
               id="path141" />
          </g>
        </g>
        <g
           style="fill:#000000;fill-opacity:1"
           id="g76">
          <g
             id="use74"
             transform="translate(49.630001,7.0300002)">
            <path
               style="stroke:none"
               d="m 3.203125,-6.984375 c 0,-0.25 0,-0.28125 -0.25,-0.28125 C 2.28125,-6.5625 1.3125,-6.5625 0.96875,-6.5625 v 0.328125 c 0.21875,0 0.859375,0 1.4375,-0.28125 v 5.65625 c 0,0.390625 -0.046875,0.515625 -1.015625,0.515625 H 1.03125 V 0 c 0.390625,-0.03125 1.328125,-0.03125 1.765625,-0.03125 0.4375,0 1.390625,0 1.765625,0.03125 V -0.34375 H 4.21875 c -0.984375,0 -1.015625,-0.109375 -1.015625,-0.515625 z m 0,0"
               id="path145" />
          </g>
        </g>
        <path
           style="fill:none;stroke:#000000;stroke-width:0.598;stroke-linecap:butt;stroke-linejoin:miter;stroke-miterlimit:10;stroke-opacity:1"
           d="M 7.8125e-4,-0.00175 H 16.364062"
           transform="matrix(1,0,0,-1,44.175,9.092)"
           id="path78" />
        <g
           clip-path="url(#clipPath1861)"
           clip-rule="nonzero"
           id="g88">
          <g
             style="fill:#000000;fill-opacity:1"
             id="g86">
            <g
               id="use80"
               transform="translate(44.174999,17.625999)">
              <path
                 style="stroke:none"
                 d="m 3.203125,-6.984375 c 0,-0.25 0,-0.28125 -0.25,-0.28125 C 2.28125,-6.5625 1.3125,-6.5625 0.96875,-6.5625 v 0.328125 c 0.21875,0 0.859375,0 1.4375,-0.28125 v 5.65625 c 0,0.390625 -0.046875,0.515625 -1.015625,0.515625 H 1.03125 V 0 c 0.390625,-0.03125 1.328125,-0.03125 1.765625,-0.03125 0.4375,0 1.390625,0 1.765625,0.03125 V -0.34375 H 4.21875 c -0.984375,0 -1.015625,-0.109375 -1.015625,-0.515625 z m 0,0"
                 id="path149" />
            </g>
            <g
               id="use82"
               transform="translate(49.629551,17.625999)">
              <path
                 style="stroke:none"
                 d="m 5.015625,-3.484375 c 0,-0.875 -0.046875,-1.75 -0.4375,-2.5625 -0.5,-1.046875 -1.390625,-1.21875 -1.859375,-1.21875 -0.640625,0 -1.4375,0.28125 -1.890625,1.296875 -0.34375,0.75 -0.40625,1.609375 -0.40625,2.484375 0,0.8125 0.046875,1.796875 0.5,2.625 0.46875,0.875 1.265625,1.09375 1.796875,1.09375 0.578125,0 1.421875,-0.21875 1.890625,-1.265625 0.359375,-0.75 0.40625,-1.59375 0.40625,-2.453125 z M 2.71875,0 C 2.296875,0 1.640625,-0.265625 1.453125,-1.3125 c -0.125,-0.65625 -0.125,-1.671875 -0.125,-2.3125 0,-0.6875 0,-1.40625 0.09375,-2 C 1.625,-6.921875 2.4375,-7.03125 2.71875,-7.03125 c 0.359375,0 1.078125,0.203125 1.28125,1.28125 0.109375,0.609375 0.109375,1.4375 0.109375,2.125 0,0.828125 0,1.5625 -0.125,2.265625 C 3.828125,-0.328125 3.203125,0 2.71875,0 Z m 0,0"
                 id="path153" />
            </g>
            <g
               id="use84"
               transform="translate(55.084099,17.625999)">
              <path
                 style="stroke:none"
                 d="m 5.015625,-3.484375 c 0,-0.875 -0.046875,-1.75 -0.4375,-2.5625 -0.5,-1.046875 -1.390625,-1.21875 -1.859375,-1.21875 -0.640625,0 -1.4375,0.28125 -1.890625,1.296875 -0.34375,0.75 -0.40625,1.609375 -0.40625,2.484375 0,0.8125 0.046875,1.796875 0.5,2.625 0.46875,0.875 1.265625,1.09375 1.796875,1.09375 0.578125,0 1.421875,-0.21875 1.890625,-1.265625 0.359375,-0.75 0.40625,-1.59375 0.40625,-2.453125 z M 2.71875,0 C 2.296875,0 1.640625,-0.265625 1.453125,-1.3125 c -0.125,-0.65625 -0.125,-1.671875 -0.125,-2.3125 0,-0.6875 0,-1.40625 0.09375,-2 C 1.625,-6.921875 2.4375,-7.03125 2.71875,-7.03125 c 0.359375,0 1.078125,0.203125 1.28125,1.28125 0.109375,0.609375 0.109375,1.4375 0.109375,2.125 0,0.828125 0,1.5625 -0.125,2.265625 C 3.828125,-0.328125 3.203125,0 2.71875,0 Z m 0,0"
                 id="path157" />
            </g>
          </g>
        </g>
        <g
           style="fill:#000000;fill-opacity:1"
           id="g98">
          <g
             id="use90"
             transform="translate(61.735001,12.679)">
            <path
               style="stroke:none"
               d="m 4.65625,3.484375 c 0,-0.046875 0,-0.078125 -0.234375,-0.3125 -1.4375,-1.453125 -2.234375,-3.8125 -2.234375,-6.75 0,-2.78125 0.671875,-5.171875 2.328125,-6.859375 0.140625,-0.140625 0.140625,-0.15625 0.140625,-0.203125 0,-0.09375 -0.0625,-0.109375 -0.125,-0.109375 -0.1875,0 -1.359375,1.03125 -2.0625,2.4375 -0.734375,1.4375 -1.0625,2.984375 -1.0625,4.734375 0,1.28125 0.203125,2.984375 0.953125,4.53125 0.84375,1.71875 2.015625,2.640625 2.171875,2.640625 0.0625,0 0.125,-0.015625 0.125,-0.109375 z m 0,0"
               id="path161" />
          </g>
          <g
             id="use92"
             transform="translate(67.198036,12.679)">
            <path
               style="stroke:none"
               d="M 1.84375,-8.21875 C 2.453125,-8.015625 2.953125,-8 3.109375,-8 c 1.625,0 2.65625,-1.1875 2.65625,-1.390625 0,-0.0625 -0.03125,-0.140625 -0.109375,-0.140625 -0.03125,0 -0.0625,0 -0.1875,0.0625 -0.8125,0.34375 -1.5,0.390625 -1.875,0.390625 -0.9375,0 -1.609375,-0.28125 -1.890625,-0.40625 -0.09375,-0.046875 -0.125,-0.046875 -0.140625,-0.046875 -0.109375,0 -0.109375,0.09375 -0.109375,0.328125 v 4.25 c 0,0.265625 0,0.34375 0.171875,0.34375 0.0625,0 0.078125,-0.015625 0.21875,-0.1875 C 2.25,-5.375 2.921875,-5.71875 3.640625,-5.71875 c 0.765625,0 1.140625,0.703125 1.25,0.9375 0.25,0.5625 0.265625,1.265625 0.265625,1.8125 0,0.546875 0,1.359375 -0.40625,2 -0.3125,0.53125 -0.875,0.875 -1.515625,0.875 -0.9375,0 -1.875,-0.640625 -2.125,-1.6875 0.0625,0.03125 0.15625,0.046875 0.21875,0.046875 0.25,0 0.640625,-0.140625 0.640625,-0.625 C 1.96875,-2.765625 1.6875,-3 1.328125,-3 c -0.25,0 -0.625,0.125 -0.625,0.6875 0,1.21875 0.96875,2.609375 2.5625,2.609375 1.625,0 3.046875,-1.359375 3.046875,-3.1875 0,-1.703125 -1.15625,-3.125 -2.65625,-3.125 -0.8125,0 -1.453125,0.359375 -1.8125,0.765625 z m 0,0"
               id="path165" />
          </g>
          <g
             id="use94"
             transform="translate(74.221931,12.679)">
            <path
               style="stroke:none"
               d="m 6.421875,-4.59375 c 0,-1.1875 -0.0625,-2.34375 -0.578125,-3.4375 -0.59375,-1.1875 -1.625,-1.5 -2.328125,-1.5 -0.828125,0 -1.859375,0.40625 -2.375,1.59375 -0.40625,0.90625 -0.546875,1.796875 -0.546875,3.34375 0,1.390625 0.09375,2.4375 0.609375,3.453125 0.5625,1.09375 1.546875,1.4375 2.296875,1.4375 1.25,0 1.96875,-0.734375 2.375,-1.578125 0.515625,-1.078125 0.546875,-2.484375 0.546875,-3.3125 z M 3.5,0.015625 C 3.046875,0.015625 2.109375,-0.25 1.84375,-1.8125 1.671875,-2.671875 1.671875,-3.765625 1.671875,-4.765625 1.671875,-5.9375 1.671875,-7 1.90625,-7.84375 2.15625,-8.8125 2.890625,-9.25 3.5,-9.25 c 0.546875,0 1.375,0.328125 1.65625,1.5625 0.171875,0.8125 0.171875,1.953125 0.171875,2.921875 0,0.96875 0,2.046875 -0.15625,2.921875 C 4.90625,-0.265625 4,0.015625 3.5,0.015625 Z m 0,0"
               id="path169" />
          </g>
          <g
             id="use96"
             transform="translate(81.245834,12.679)">
            <path
               style="stroke:none"
               d="m 6.421875,-4.59375 c 0,-1.1875 -0.0625,-2.34375 -0.578125,-3.4375 -0.59375,-1.1875 -1.625,-1.5 -2.328125,-1.5 -0.828125,0 -1.859375,0.40625 -2.375,1.59375 -0.40625,0.90625 -0.546875,1.796875 -0.546875,3.34375 0,1.390625 0.09375,2.4375 0.609375,3.453125 0.5625,1.09375 1.546875,1.4375 2.296875,1.4375 1.25,0 1.96875,-0.734375 2.375,-1.578125 0.515625,-1.078125 0.546875,-2.484375 0.546875,-3.3125 z M 3.5,0.015625 C 3.046875,0.015625 2.109375,-0.25 1.84375,-1.8125 1.671875,-2.671875 1.671875,-3.765625 1.671875,-4.765625 1.671875,-5.9375 1.671875,-7 1.90625,-7.84375 2.15625,-8.8125 2.890625,-9.25 3.5,-9.25 c 0.546875,0 1.375,0.328125 1.65625,1.5625 0.171875,0.8125 0.171875,1.953125 0.171875,2.921875 0,0.96875 0,2.046875 -0.15625,2.921875 C 4.90625,-0.265625 4,0.015625 3.5,0.015625 Z m 0,0"
               id="path173" />
          </g>
        </g>
        <g
           style="fill:#000000;fill-opacity:1"
           id="g102">
          <g
             id="use100"
             transform="translate(88.267998,12.679)">
            <path
               style="stroke:none"
               d="m 2.890625,-5.765625 h 1.3125 c 0.265625,0 0.421875,0 0.421875,-0.265625 C 4.625,-6.1875 4.53125,-6.1875 4.25,-6.1875 H 2.984375 l 0.53125,-2.09375 c 0.0625,-0.203125 0.0625,-0.21875 0.0625,-0.328125 0,-0.21875 -0.1875,-0.359375 -0.375,-0.359375 -0.125,0 -0.453125,0.046875 -0.5625,0.5 l -0.5625,2.28125 h -1.34375 c -0.296875,0 -0.421875,0 -0.421875,0.28125 0,0.140625 0.109375,0.140625 0.375,0.140625 h 1.28125 l -0.953125,3.78125 c -0.109375,0.5 -0.15625,0.65625 -0.15625,0.84375 0,0.671875 0.46875,1.28125 1.28125,1.28125 1.4375,0 2.21875,-2.09375 2.21875,-2.1875 0,-0.09375 -0.0625,-0.140625 -0.140625,-0.140625 -0.03125,0 -0.09375,0 -0.109375,0.0625 -0.015625,0.015625 -0.03125,0.03125 -0.140625,0.265625 -0.296875,0.71875 -0.953125,1.71875 -1.78125,1.71875 -0.4375,0 -0.46875,-0.359375 -0.46875,-0.671875 0,-0.015625 0,-0.296875 0.046875,-0.46875 z m 0,0"
               id="path177" />
          </g>
        </g>
        <g
           style="fill:#000000;fill-opacity:1"
           id="g106">
          <g
             id="use104"
             transform="translate(96.528999,12.679)">
            <path
               style="stroke:none"
               d="m 9.453125,-3.296875 c 0.25,0 0.5,0 0.5,-0.28125 0,-0.296875 -0.25,-0.296875 -0.5,-0.296875 H 1.6875 c -0.234375,0 -0.5,0 -0.5,0.296875 0,0.28125 0.265625,0.28125 0.5,0.28125 z m 0,0"
               id="path181" />
          </g>
        </g>
        <g
           style="fill:#000000;fill-opacity:1"
           id="g110">
          <g
             id="use108"
             transform="translate(110.875,12.679)">
            <path
               style="stroke:none"
               d="m 2.890625,-5.765625 h 1.3125 c 0.265625,0 0.421875,0 0.421875,-0.265625 C 4.625,-6.1875 4.53125,-6.1875 4.25,-6.1875 H 2.984375 l 0.53125,-2.09375 c 0.0625,-0.203125 0.0625,-0.21875 0.0625,-0.328125 0,-0.21875 -0.1875,-0.359375 -0.375,-0.359375 -0.125,0 -0.453125,0.046875 -0.5625,0.5 l -0.5625,2.28125 h -1.34375 c -0.296875,0 -0.421875,0 -0.421875,0.28125 0,0.140625 0.109375,0.140625 0.375,0.140625 h 1.28125 l -0.953125,3.78125 c -0.109375,0.5 -0.15625,0.65625 -0.15625,0.84375 0,0.671875 0.46875,1.28125 1.28125,1.28125 1.4375,0 2.21875,-2.09375 2.21875,-2.1875 0,-0.09375 -0.0625,-0.140625 -0.140625,-0.140625 -0.03125,0 -0.09375,0 -0.109375,0.0625 -0.015625,0.015625 -0.03125,0.03125 -0.140625,0.265625 -0.296875,0.71875 -0.953125,1.71875 -1.78125,1.71875 -0.4375,0 -0.46875,-0.359375 -0.46875,-0.671875 0,-0.015625 0,-0.296875 0.046875,-0.46875 z m 0,0"
               id="path185" />
          </g>
        </g>
        <g
           style="fill:#000000;fill-opacity:1"
           id="g114">
          <g
             id="use112"
             transform="translate(115.947,7.473)">
            <path
               style="stroke:none"
               d="m 1.390625,-0.84375 1.15625,-1.125 c 1.703125,-1.5 2.34375,-2.09375 2.34375,-3.171875 0,-1.25 -0.96875,-2.125 -2.3125,-2.125 -1.21875,0 -2.03125,1 -2.03125,1.96875 0,0.625 0.546875,0.625 0.578125,0.625 0.1875,0 0.5625,-0.140625 0.5625,-0.578125 0,-0.296875 -0.1875,-0.578125 -0.578125,-0.578125 -0.078125,0 -0.109375,0 -0.140625,0.015625 0.25,-0.703125 0.84375,-1.109375 1.46875,-1.109375 1,0 1.46875,0.875 1.46875,1.78125 0,0.859375 -0.546875,1.734375 -1.140625,2.40625 l -2.09375,2.328125 c -0.125,0.125 -0.125,0.140625 -0.125,0.40625 H 4.59375 L 4.890625,-1.890625 H 4.625 C 4.5625,-1.578125 4.5,-1.09375 4.390625,-0.921875 4.3125,-0.84375 3.59375,-0.84375 3.34375,-0.84375 Z m 0,0"
               id="path189" />
          </g>
        </g>
        <g
           style="fill:#000000;fill-opacity:1"
           id="g118">
          <g
             id="use116"
             transform="translate(121.9,12.679)">
            <path
               style="stroke:none"
               d="M 4.046875,-3.578125 C 4.046875,-4.65625 3.90625,-6.4375 3.09375,-8.109375 2.25,-9.828125 1.078125,-10.75 0.921875,-10.75 c -0.0625,0 -0.140625,0.01563 -0.140625,0.109375 0,0.04687 0,0.0625 0.25,0.3125 1.4375,1.453125 2.234375,3.8125 2.234375,6.75 0,2.78125 -0.671875,5.171875 -2.328125,6.859375 -0.15625,0.125 -0.15625,0.15625 -0.15625,0.203125 0,0.09375 0.078125,0.109375 0.140625,0.109375 0.1875,0 1.359375,-1.03125 2.0625,-2.4375 0.734375,-1.453125 1.0625,-3 1.0625,-4.734375 z m 0,0"
               id="path193" />
          </g>
        </g>
      </g>
    </g>
    <g
       inkscape:label=""
       transform="matrix(2.209107,0,0,2.209107,112.57772,102.74607)"
       id="g4478">
      <g
         id="g4476"
         transform="matrix(0.352778,0,0,0.352778,-0.275608,-0.00317494)">
        <g
           style="fill:#000000;fill-opacity:1"
           id="g50">
          <g
             id="use48"
             transform="translate(0,10.759)">
            <path
               style="stroke:none"
               d="m 4.03125,-9.59375 c 0.015625,-0.0625 0.046875,-0.140625 0.046875,-0.21875 0,-0.140625 -0.140625,-0.140625 -0.171875,-0.140625 -0.015625,0 -0.71875,0.0625 -0.796875,0.0625 C 2.875,-9.875 2.65625,-9.84375 2.390625,-9.828125 2.03125,-9.796875 1.9375,-9.78125 1.9375,-9.53125 c 0,0.15625 0.109375,0.15625 0.3125,0.15625 0.703125,0 0.71875,0.125 0.71875,0.265625 0,0.09375 -0.03125,0.203125 -0.046875,0.25 L 0.84375,-0.5625 c -0.0625,0.21875 -0.0625,0.25 -0.0625,0.328125 0,0.328125 0.25,0.375 0.390625,0.375 0.25,0 0.4375,-0.1875 0.5,-0.34375 l 0.65625,-2.59375 c 0.0625,-0.3125 0.15625,-0.609375 0.21875,-0.9375 0.171875,-0.59375 0.171875,-0.609375 0.4375,-1.03125 C 3.25,-5.171875 3.90625,-6.03125 5,-6.03125 c 0.578125,0 0.78125,0.421875 0.78125,1 0,0.796875 -0.5625,2.359375 -0.875,3.21875 -0.125,0.34375 -0.203125,0.53125 -0.203125,0.796875 0,0.640625 0.453125,1.15625 1.140625,1.15625 1.328125,0 1.828125,-2.109375 1.828125,-2.1875 0,-0.078125 -0.0625,-0.140625 -0.140625,-0.140625 -0.125,0 -0.140625,0.046875 -0.21875,0.296875 -0.328125,1.140625 -0.859375,1.75 -1.4375,1.75 -0.140625,0 -0.359375,-0.015625 -0.359375,-0.46875 0,-0.375 0.171875,-0.84375 0.21875,-1 0.265625,-0.6875 0.90625,-2.375 0.90625,-3.203125 0,-0.875 -0.5,-1.515625 -1.59375,-1.515625 -0.8125,0 -1.53125,0.390625 -2.125,1.140625 z m 0,0"
               id="path97" />
          </g>
        </g>
        <g
           clip-path="url(#clipPath2187)"
           clip-rule="nonzero"
           id="g4436">
          <g
             style="fill:#000000;fill-opacity:1"
             id="g54">
            <g
               id="use52"
               transform="translate(8.0860004,10.759)">
              <path
                 style="stroke:none"
                 d="m 4.65625,3.484375 c 0,-0.046875 0,-0.078125 -0.234375,-0.3125 -1.4375,-1.453125 -2.234375,-3.8125 -2.234375,-6.75 0,-2.78125 0.671875,-5.171875 2.328125,-6.859375 0.140625,-0.140625 0.140625,-0.15625 0.140625,-0.203125 0,-0.09375 -0.0625,-0.109375 -0.125,-0.109375 -0.1875,0 -1.359375,1.03125 -2.0625,2.4375 -0.734375,1.4375 -1.0625,2.984375 -1.0625,4.734375 0,1.28125 0.203125,2.984375 0.953125,4.53125 0.84375,1.71875 2.015625,2.640625 2.171875,2.640625 0.0625,0 0.125,-0.015625 0.125,-0.109375 z m 0,0"
                 id="path101" />
            </g>
          </g>
        </g>
        <g
           style="fill:#000000;fill-opacity:1"
           id="g4441">
          <g
             id="g4439"
             transform="translate(13.549,10.759)">
            <path
               style="stroke:none"
               d="m 2.890625,-5.765625 h 1.3125 c 0.265625,0 0.421875,0 0.421875,-0.265625 C 4.625,-6.1875 4.53125,-6.1875 4.25,-6.1875 H 2.984375 l 0.53125,-2.09375 c 0.0625,-0.203125 0.0625,-0.21875 0.0625,-0.328125 0,-0.21875 -0.1875,-0.359375 -0.375,-0.359375 -0.125,0 -0.453125,0.046875 -0.5625,0.5 l -0.5625,2.28125 h -1.34375 c -0.296875,0 -0.421875,0 -0.421875,0.28125 0,0.140625 0.109375,0.140625 0.375,0.140625 h 1.28125 l -0.953125,3.78125 c -0.109375,0.5 -0.15625,0.65625 -0.15625,0.84375 0,0.671875 0.46875,1.28125 1.28125,1.28125 1.4375,0 2.21875,-2.09375 2.21875,-2.1875 0,-0.09375 -0.0625,-0.140625 -0.140625,-0.140625 -0.03125,0 -0.09375,0 -0.109375,0.0625 -0.015625,0.015625 -0.03125,0.03125 -0.140625,0.265625 -0.296875,0.71875 -0.953125,1.71875 -1.78125,1.71875 -0.4375,0 -0.46875,-0.359375 -0.46875,-0.671875 0,-0.015625 0,-0.296875 0.046875,-0.46875 z m 0,0"
               id="path105" />
          </g>
        </g>
        <g
           clip-path="url(#clipPath3992)"
           clip-rule="nonzero"
           id="g66">
          <g
             style="fill:#000000;fill-opacity:1"
             id="g4446">
            <g
               id="g4444"
               transform="translate(18.622,10.759)">
              <path
                 style="stroke:none"
                 d="M 4.046875,-3.578125 C 4.046875,-4.65625 3.90625,-6.4375 3.09375,-8.109375 2.25,-9.828125 1.078125,-10.75 0.921875,-10.75 c -0.0625,0 -0.140625,0.01563 -0.140625,0.109375 0,0.04687 0,0.0625 0.25,0.3125 1.4375,1.453125 2.234375,3.8125 2.234375,6.75 0,2.78125 -0.671875,5.171875 -2.328125,6.859375 -0.15625,0.125 -0.15625,0.15625 -0.15625,0.203125 0,0.09375 0.078125,0.109375 0.140625,0.109375 0.1875,0 1.359375,-1.03125 2.0625,-2.4375 0.734375,-1.453125 1.0625,-3 1.0625,-4.734375 z m 0,0"
                 id="path109" />
            </g>
          </g>
        </g>
        <g
           style="fill:#000000;fill-opacity:1"
           id="g70">
          <g
             id="use68"
             transform="translate(28.073277,10.759)">
            <path
               style="stroke:none"
               d="m 9.6875,-4.640625 c 0.203125,0 0.453125,0 0.453125,-0.265625 0,-0.265625 -0.25,-0.265625 -0.453125,-0.265625 H 1.234375 c -0.203125,0 -0.453125,0 -0.453125,0.25 0,0.28125 0.234375,0.28125 0.453125,0.28125 z m 0,2.65625 c 0.203125,0 0.453125,0 0.453125,-0.25 0,-0.28125 -0.25,-0.28125 -0.453125,-0.28125 H 1.234375 c -0.203125,0 -0.453125,0 -0.453125,0.265625 0,0.265625 0.234375,0.265625 0.453125,0.265625 z m 0,0"
               id="path113" />
          </g>
        </g>
        <g
           style="fill:#000000;fill-opacity:1"
           id="g78">
          <g
             id="use72"
             transform="translate(42.97324,10.759)">
            <path
               style="stroke:none"
               d="m 4.125,-9.1875 c 0,-0.34375 0,-0.34375 -0.28125,-0.34375 C 3.5,-9.15625 2.78125,-8.625 1.3125,-8.625 v 0.421875 c 0.328125,0 1.046875,0 1.828125,-0.375 v 7.46875 c 0,0.515625 -0.046875,0.6875 -1.296875,0.6875 H 1.390625 V 0 c 0.390625,-0.03125 1.78125,-0.03125 2.25,-0.03125 0.46875,0 1.859375,0 2.234375,0.03125 V -0.421875 H 5.4375 c -1.265625,0 -1.3125,-0.171875 -1.3125,-0.6875 z m 0,0"
               id="path117" />
          </g>
          <g
             id="g4455"
             transform="translate(49.997139,10.759)">
            <path
               style="stroke:none"
               d="m 6.421875,-4.59375 c 0,-1.1875 -0.0625,-2.34375 -0.578125,-3.4375 -0.59375,-1.1875 -1.625,-1.5 -2.328125,-1.5 -0.828125,0 -1.859375,0.40625 -2.375,1.59375 -0.40625,0.90625 -0.546875,1.796875 -0.546875,3.34375 0,1.390625 0.09375,2.4375 0.609375,3.453125 0.5625,1.09375 1.546875,1.4375 2.296875,1.4375 1.25,0 1.96875,-0.734375 2.375,-1.578125 0.515625,-1.078125 0.546875,-2.484375 0.546875,-3.3125 z M 3.5,0.015625 C 3.046875,0.015625 2.109375,-0.25 1.84375,-1.8125 1.671875,-2.671875 1.671875,-3.765625 1.671875,-4.765625 1.671875,-5.9375 1.671875,-7 1.90625,-7.84375 2.15625,-8.8125 2.890625,-9.25 3.5,-9.25 c 0.546875,0 1.375,0.328125 1.65625,1.5625 0.171875,0.8125 0.171875,1.953125 0.171875,2.921875 0,0.96875 0,2.046875 -0.15625,2.921875 C 4.90625,-0.265625 4,0.015625 3.5,0.015625 Z m 0,0"
               id="path121" />
          </g>
          <g
             id="use76"
             transform="translate(57.021038,10.759)">
            <path
               style="stroke:none"
               d="m 6.421875,-4.59375 c 0,-1.1875 -0.0625,-2.34375 -0.578125,-3.4375 -0.59375,-1.1875 -1.625,-1.5 -2.328125,-1.5 -0.828125,0 -1.859375,0.40625 -2.375,1.59375 -0.40625,0.90625 -0.546875,1.796875 -0.546875,3.34375 0,1.390625 0.09375,2.4375 0.609375,3.453125 0.5625,1.09375 1.546875,1.4375 2.296875,1.4375 1.25,0 1.96875,-0.734375 2.375,-1.578125 0.515625,-1.078125 0.546875,-2.484375 0.546875,-3.3125 z M 3.5,0.015625 C 3.046875,0.015625 2.109375,-0.25 1.84375,-1.8125 1.671875,-2.671875 1.671875,-3.765625 1.671875,-4.765625 1.671875,-5.9375 1.671875,-7 1.90625,-7.84375 2.15625,-8.8125 2.890625,-9.25 3.5,-9.25 c 0.546875,0 1.375,0.328125 1.65625,1.5625 0.171875,0.8125 0.171875,1.953125 0.171875,2.921875 0,0.96875 0,2.046875 -0.15625,2.921875 C 4.90625,-0.265625 4,0.015625 3.5,0.015625 Z m 0,0"
               id="path4457" />
          </g>
        </g>
        <g
           style="fill:#000000;fill-opacity:1"
           id="g82">
          <g
             id="g4463"
             transform="translate(64.051003,10.759)">
            <path
               style="stroke:none"
               d="m 2.890625,-5.765625 h 1.3125 c 0.265625,0 0.421875,0 0.421875,-0.265625 C 4.625,-6.1875 4.53125,-6.1875 4.25,-6.1875 H 2.984375 l 0.53125,-2.09375 c 0.0625,-0.203125 0.0625,-0.21875 0.0625,-0.328125 0,-0.21875 -0.1875,-0.359375 -0.375,-0.359375 -0.125,0 -0.453125,0.046875 -0.5625,0.5 l -0.5625,2.28125 h -1.34375 c -0.296875,0 -0.421875,0 -0.421875,0.28125 0,0.140625 0.109375,0.140625 0.375,0.140625 h 1.28125 l -0.953125,3.78125 c -0.109375,0.5 -0.15625,0.65625 -0.15625,0.84375 0,0.671875 0.46875,1.28125 1.28125,1.28125 1.4375,0 2.21875,-2.09375 2.21875,-2.1875 0,-0.09375 -0.0625,-0.140625 -0.140625,-0.140625 -0.03125,0 -0.09375,0 -0.109375,0.0625 -0.015625,0.015625 -0.03125,0.03125 -0.140625,0.265625 -0.296875,0.71875 -0.953125,1.71875 -1.78125,1.71875 -0.4375,0 -0.46875,-0.359375 -0.46875,-0.671875 0,-0.015625 0,-0.296875 0.046875,-0.46875 z m 0,0"
               id="path4461" />
          </g>
        </g>
        <g
           style="fill:#000000;fill-opacity:1"
           id="g4470">
          <g
             id="g4468"
             transform="translate(72.310997,10.759)">
            <path
               style="stroke:none"
               d="m 9.453125,-3.296875 c 0.25,0 0.5,0 0.5,-0.28125 0,-0.296875 -0.25,-0.296875 -0.5,-0.296875 H 1.6875 c -0.234375,0 -0.5,0 -0.5,0.296875 0,0.28125 0.265625,0.28125 0.5,0.28125 z m 0,0"
               id="path4466" />
          </g>
        </g>
        <g
           style="fill:#000000;fill-opacity:1"
           id="g90">
          <g
             id="use88"
             transform="translate(86.656998,10.759)">
            <path
               style="stroke:none"
               d="M 1.84375,-8.21875 C 2.453125,-8.015625 2.953125,-8 3.109375,-8 c 1.625,0 2.65625,-1.1875 2.65625,-1.390625 0,-0.0625 -0.03125,-0.140625 -0.109375,-0.140625 -0.03125,0 -0.0625,0 -0.1875,0.0625 -0.8125,0.34375 -1.5,0.390625 -1.875,0.390625 -0.9375,0 -1.609375,-0.28125 -1.890625,-0.40625 -0.09375,-0.046875 -0.125,-0.046875 -0.140625,-0.046875 -0.109375,0 -0.109375,0.09375 -0.109375,0.328125 v 4.25 c 0,0.265625 0,0.34375 0.171875,0.34375 0.0625,0 0.078125,-0.015625 0.21875,-0.1875 C 2.25,-5.375 2.921875,-5.71875 3.640625,-5.71875 c 0.765625,0 1.140625,0.703125 1.25,0.9375 0.25,0.5625 0.265625,1.265625 0.265625,1.8125 0,0.546875 0,1.359375 -0.40625,2 -0.3125,0.53125 -0.875,0.875 -1.515625,0.875 -0.9375,0 -1.875,-0.640625 -2.125,-1.6875 0.0625,0.03125 0.15625,0.046875 0.21875,0.046875 0.25,0 0.640625,-0.140625 0.640625,-0.625 C 1.96875,-2.765625 1.6875,-3 1.328125,-3 c -0.25,0 -0.625,0.125 -0.625,0.6875 0,1.21875 0.96875,2.609375 2.5625,2.609375 1.625,0 3.046875,-1.359375 3.046875,-3.1875 0,-1.703125 -1.15625,-3.125 -2.65625,-3.125 -0.8125,0 -1.453125,0.359375 -1.8125,0.765625 z m 0,0"
               id="path4472" />
          </g>
        </g>
      </g>
    </g>
    <g
       inkscape:label=""
       transform="matrix(2.2922467,0,0,2.2922467,126.54314,75.365369)"
       id="g4752">
      <g
         id="g4750"
         transform="matrix(0.352778,0,0,0.352778,-0.275608,0.0831232)">
        <g
           style="fill:#000000;fill-opacity:1"
           id="g47">
          <g
             id="use45"
             transform="translate(0,12.679)">
            <path
               style="stroke:none"
               d="m 4.03125,-9.59375 c 0.015625,-0.0625 0.046875,-0.140625 0.046875,-0.21875 0,-0.140625 -0.140625,-0.140625 -0.171875,-0.140625 -0.015625,0 -0.71875,0.0625 -0.796875,0.0625 C 2.875,-9.875 2.65625,-9.84375 2.390625,-9.828125 2.03125,-9.796875 1.9375,-9.78125 1.9375,-9.53125 c 0,0.15625 0.109375,0.15625 0.3125,0.15625 0.703125,0 0.71875,0.125 0.71875,0.265625 0,0.09375 -0.03125,0.203125 -0.046875,0.25 L 0.84375,-0.5625 c -0.0625,0.21875 -0.0625,0.25 -0.0625,0.328125 0,0.328125 0.25,0.375 0.390625,0.375 0.25,0 0.4375,-0.1875 0.5,-0.34375 l 0.65625,-2.59375 c 0.0625,-0.3125 0.15625,-0.609375 0.21875,-0.9375 0.171875,-0.59375 0.171875,-0.609375 0.4375,-1.03125 C 3.25,-5.171875 3.90625,-6.03125 5,-6.03125 c 0.578125,0 0.78125,0.421875 0.78125,1 0,0.796875 -0.5625,2.359375 -0.875,3.21875 -0.125,0.34375 -0.203125,0.53125 -0.203125,0.796875 0,0.640625 0.453125,1.15625 1.140625,1.15625 1.328125,0 1.828125,-2.109375 1.828125,-2.1875 0,-0.078125 -0.0625,-0.140625 -0.140625,-0.140625 -0.125,0 -0.140625,0.046875 -0.21875,0.296875 -0.328125,1.140625 -0.859375,1.75 -1.4375,1.75 -0.140625,0 -0.359375,-0.015625 -0.359375,-0.46875 0,-0.375 0.171875,-0.84375 0.21875,-1 0.265625,-0.6875 0.90625,-2.375 0.90625,-3.203125 0,-0.875 -0.5,-1.515625 -1.59375,-1.515625 -0.8125,0 -1.53125,0.390625 -2.125,1.140625 z m 0,0"
               id="path84" />
          </g>
        </g>
        <g
           style="fill:#000000;fill-opacity:1"
           id="g51">
          <g
             id="use49"
             transform="translate(8.0860004,12.679)">
            <path
               style="stroke:none"
               d="m 4.65625,3.484375 c 0,-0.046875 0,-0.078125 -0.234375,-0.3125 -1.4375,-1.453125 -2.234375,-3.8125 -2.234375,-6.75 0,-2.78125 0.671875,-5.171875 2.328125,-6.859375 0.140625,-0.140625 0.140625,-0.15625 0.140625,-0.203125 0,-0.09375 -0.0625,-0.109375 -0.125,-0.109375 -0.1875,0 -1.359375,1.03125 -2.0625,2.4375 -0.734375,1.4375 -1.0625,2.984375 -1.0625,4.734375 0,1.28125 0.203125,2.984375 0.953125,4.53125 0.84375,1.71875 2.015625,2.640625 2.171875,2.640625 0.0625,0 0.125,-0.015625 0.125,-0.109375 z m 0,0"
               id="path88" />
          </g>
        </g>
        <g
           style="fill:#000000;fill-opacity:1"
           id="g55">
          <g
             id="use53"
             transform="translate(13.549,12.679)">
            <path
               style="stroke:none"
               d="m 2.890625,-5.765625 h 1.3125 c 0.265625,0 0.421875,0 0.421875,-0.265625 C 4.625,-6.1875 4.53125,-6.1875 4.25,-6.1875 H 2.984375 l 0.53125,-2.09375 c 0.0625,-0.203125 0.0625,-0.21875 0.0625,-0.328125 0,-0.21875 -0.1875,-0.359375 -0.375,-0.359375 -0.125,0 -0.453125,0.046875 -0.5625,0.5 l -0.5625,2.28125 h -1.34375 c -0.296875,0 -0.421875,0 -0.421875,0.28125 0,0.140625 0.109375,0.140625 0.375,0.140625 h 1.28125 l -0.953125,3.78125 c -0.109375,0.5 -0.15625,0.65625 -0.15625,0.84375 0,0.671875 0.46875,1.28125 1.28125,1.28125 1.4375,0 2.21875,-2.09375 2.21875,-2.1875 0,-0.09375 -0.0625,-0.140625 -0.140625,-0.140625 -0.03125,0 -0.09375,0 -0.109375,0.0625 -0.015625,0.015625 -0.03125,0.03125 -0.140625,0.265625 -0.296875,0.71875 -0.953125,1.71875 -1.78125,1.71875 -0.4375,0 -0.46875,-0.359375 -0.46875,-0.671875 0,-0.015625 0,-0.296875 0.046875,-0.46875 z m 0,0"
               id="path92" />
          </g>
        </g>
        <g
           style="fill:#000000;fill-opacity:1"
           id="g59">
          <g
             id="use57"
             transform="translate(18.622,12.679)">
            <path
               style="stroke:none"
               d="M 4.046875,-3.578125 C 4.046875,-4.65625 3.90625,-6.4375 3.09375,-8.109375 2.25,-9.828125 1.078125,-10.75 0.921875,-10.75 c -0.0625,0 -0.140625,0.01563 -0.140625,0.109375 0,0.04687 0,0.0625 0.25,0.3125 1.4375,1.453125 2.234375,3.8125 2.234375,6.75 0,2.78125 -0.671875,5.171875 -2.328125,6.859375 -0.15625,0.125 -0.15625,0.15625 -0.15625,0.203125 0,0.09375 0.078125,0.109375 0.140625,0.109375 0.1875,0 1.359375,-1.03125 2.0625,-2.4375 0.734375,-1.453125 1.0625,-3 1.0625,-4.734375 z m 0,0"
               id="path96" />
          </g>
        </g>
        <g
           style="fill:#000000;fill-opacity:1"
           id="g63">
          <g
             id="use61"
             transform="translate(28.073277,12.679)">
            <path
               style="stroke:none"
               d="m 9.6875,-4.640625 c 0.203125,0 0.453125,0 0.453125,-0.265625 0,-0.265625 -0.25,-0.265625 -0.453125,-0.265625 H 1.234375 c -0.203125,0 -0.453125,0 -0.453125,0.25 0,0.28125 0.234375,0.28125 0.453125,0.28125 z m 0,2.65625 c 0.203125,0 0.453125,0 0.453125,-0.25 0,-0.28125 -0.25,-0.28125 -0.453125,-0.28125 H 1.234375 c -0.203125,0 -0.453125,0 -0.453125,0.265625 0,0.265625 0.234375,0.265625 0.453125,0.265625 z m 0,0"
               id="path100" />
          </g>
        </g>
        <g
           style="fill:#000000;fill-opacity:1"
           id="g69">
          <g
             id="use65"
             transform="translate(44.174999,7.0300002)">
            <path
               style="stroke:none"
               d="m 4.890625,-2.1875 c 0,-1.296875 -0.890625,-2.390625 -2.0625,-2.390625 -0.53125,0 -1,0.171875 -1.390625,0.546875 v -2.125 c 0.21875,0.078125 0.578125,0.140625 0.921875,0.140625 1.34375,0 2.109375,-0.984375 2.109375,-1.125 0,-0.0625 -0.03125,-0.125 -0.109375,-0.125 0,0 -0.03125,0 -0.078125,0.03125 -0.21875,0.109375 -0.765625,0.3125 -1.484375,0.3125 -0.4375,0 -0.9375,-0.0625 -1.453125,-0.296875 C 1.25,-7.25 1.234375,-7.25 1.203125,-7.25 1.09375,-7.25 1.09375,-7.171875 1.09375,-6.984375 v 3.21875 c 0,0.203125 0,0.28125 0.15625,0.28125 0.078125,0 0.109375,-0.03125 0.140625,-0.09375 0.125,-0.171875 0.53125,-0.765625 1.40625,-0.765625 0.578125,0 0.84375,0.5 0.9375,0.703125 0.171875,0.40625 0.1875,0.828125 0.1875,1.375 0,0.375 0,1.03125 -0.25,1.484375 C 3.40625,-0.34375 3,-0.0625 2.5,-0.0625 c -0.796875,0 -1.421875,-0.578125 -1.609375,-1.21875 0.03125,0 0.0625,0.015625 0.1875,0.015625 0.359375,0 0.546875,-0.265625 0.546875,-0.53125 0,-0.265625 -0.1875,-0.53125 -0.546875,-0.53125 -0.15625,0 -0.53125,0.078125 -0.53125,0.578125 0,0.9375 0.75,1.984375 1.96875,1.984375 1.265625,0 2.375,-1.046875 2.375,-2.421875 z m 0,0"
               id="path104" />
          </g>
          <g
             id="use67"
             transform="translate(49.629551,7.0300002)">
            <path
               style="stroke:none"
               d="m 5.015625,-3.484375 c 0,-0.875 -0.046875,-1.75 -0.4375,-2.5625 -0.5,-1.046875 -1.390625,-1.21875 -1.859375,-1.21875 -0.640625,0 -1.4375,0.28125 -1.890625,1.296875 -0.34375,0.75 -0.40625,1.609375 -0.40625,2.484375 0,0.8125 0.046875,1.796875 0.5,2.625 0.46875,0.875 1.265625,1.09375 1.796875,1.09375 0.578125,0 1.421875,-0.21875 1.890625,-1.265625 0.359375,-0.75 0.40625,-1.59375 0.40625,-2.453125 z M 2.71875,0 C 2.296875,0 1.640625,-0.265625 1.453125,-1.3125 c -0.125,-0.65625 -0.125,-1.671875 -0.125,-2.3125 0,-0.6875 0,-1.40625 0.09375,-2 C 1.625,-6.921875 2.4375,-7.03125 2.71875,-7.03125 c 0.359375,0 1.078125,0.203125 1.28125,1.28125 0.109375,0.609375 0.109375,1.4375 0.109375,2.125 0,0.828125 0,1.5625 -0.125,2.265625 C 3.828125,-0.328125 3.203125,0 2.71875,0 Z m 0,0"
               id="path108" />
          </g>
        </g>
        <path
           style="fill:none;stroke:#000000;stroke-width:0.598;stroke-linecap:butt;stroke-linejoin:miter;stroke-miterlimit:10;stroke-opacity:1"
           d="M 7.8125e-4,-0.00175 H 10.910937"
           transform="matrix(1,0,0,-1,44.175,9.092)"
           id="path71" />
        <g
           clip-path="url(#clipPath8278)"
           clip-rule="nonzero"
           id="g77">
          <g
             style="fill:#000000;fill-opacity:1"
             id="g75">
            <g
               id="use73"
               transform="translate(47.66,17.625999)">
              <path
                 style="stroke:none"
                 d="m 2.25,-4.359375 h 1.015625 c 0.21875,0 0.328125,0 0.328125,-0.21875 0,-0.125 -0.109375,-0.125 -0.296875,-0.125 H 2.328125 C 2.71875,-6.25 2.78125,-6.46875 2.78125,-6.53125 c 0,-0.1875 -0.125,-0.296875 -0.3125,-0.296875 -0.03125,0 -0.34375,0.015625 -0.4375,0.390625 l -0.421875,1.734375 h -1.03125 c -0.21875,0 -0.328125,0 -0.328125,0.203125 0,0.140625 0.09375,0.140625 0.3125,0.140625 h 0.953125 c -0.78125,3.09375 -0.828125,3.28125 -0.828125,3.46875 0,0.59375 0.40625,1.015625 1,1.015625 1.109375,0 1.734375,-1.59375 1.734375,-1.6875 0,-0.109375 -0.078125,-0.109375 -0.125,-0.109375 -0.09375,0 -0.109375,0.03125 -0.171875,0.15625 C 2.65625,-0.375 2.078125,-0.125 1.71875,-0.125 c -0.234375,0 -0.34375,-0.140625 -0.34375,-0.5 0,-0.265625 0.015625,-0.328125 0.0625,-0.515625 z m 0,0"
                 id="path112" />
            </g>
          </g>
        </g>
      </g>
    </g>
  </g>
</svg>
