<svg version="1.1" xmlns="http://www.w3.org/2000/svg" xmlns:xlink="http://www.w3.org/1999/xlink" width="1530" height="919"><defs><clipPath id="gialCnpKporT"><path fill="none" stroke="none" d=" M 0 0 L 1530 0 L 1530 919 L 0 919 L 0 0 Z"/></clipPath></defs><g transform="scale(1,1)" clip-path="url(#gialCnpKporT)"><g><rect fill="rgb(255,255,255)" stroke="none" x="0" y="0" width="1530" height="919" fill-opacity="1"/><path fill="none" stroke="rgb(192,192,192)" paint-order="fill stroke markers" d=" M 15.5 0.5 L 15.5 919.5 M 15.5 0.5 L 15.5 919.5 M 85.5 0.5 L 85.5 919.5 M 156.5 0.5 L 156.5 919.5 M 297.5 0.5 L 297.5 919.5 M 368.5 0.5 L 368.5 919.5 M 438.5 0.5 L 438.5 919.5 M 509.5 0.5 L 509.5 919.5 M 580.5 0.5 L 580.5 919.5 M 650.5 0.5 L 650.5 919.5 M 721.5 0.5 L 721.5 919.5 M 791.5 0.5 L 791.5 919.5 M 862.5 0.5 L 862.5 919.5 M 933.5 0.5 L 933.5 919.5 M 1003.5 0.5 L 1003.5 919.5 M 1074.5 0.5 L 1074.5 919.5 M 1145.5 0.5 L 1145.5 919.5 M 1215.5 0.5 L 1215.5 919.5 M 1286.5 0.5 L 1286.5 919.5 M 1356.5 0.5 L 1356.5 919.5 M 1427.5 0.5 L 1427.5 919.5 M 1498.5 0.5 L 1498.5 919.5" stroke-opacity="1" stroke-linecap="round" stroke-linejoin="round" stroke-miterlimit="10"/><path fill="none" stroke="rgb(192,192,192)" paint-order="fill stroke markers" d=" M 0.5 0.5 L 0.5 919.5 M 29.5 0.5 L 29.5 919.5 M 43.5 0.5 L 43.5 919.5 M 57.5 0.5 L 57.5 919.5 M 71.5 0.5 L 71.5 919.5 M 99.5 0.5 L 99.5 919.5 M 113.5 0.5 L 113.5 919.5 M 128.5 0.5 L 128.5 919.5 M 142.5 0.5 L 142.5 919.5 M 170.5 0.5 L 170.5 919.5 M 184.5 0.5 L 184.5 919.5 M 198.5 0.5 L 198.5 919.5 M 212.5 0.5 L 212.5 919.5 M 241.5 0.5 L 241.5 919.5 M 255.5 0.5 L 255.5 919.5 M 269.5 0.5 L 269.5 919.5 M 283.5 0.5 L 283.5 919.5 M 311.5 0.5 L 311.5 919.5 M 325.5 0.5 L 325.5 919.5 M 339.5 0.5 L 339.5 919.5 M 354.5 0.5 L 354.5 919.5 M 382.5 0.5 L 382.5 919.5 M 396.5 0.5 L 396.5 919.5 M 410.5 0.5 L 410.5 919.5 M 424.5 0.5 L 424.5 919.5 M 452.5 0.5 L 452.5 919.5 M 467.5 0.5 L 467.5 919.5 M 481.5 0.5 L 481.5 919.5 M 495.5 0.5 L 495.5 919.5 M 523.5 0.5 L 523.5 919.5 M 537.5 0.5 L 537.5 919.5 M 551.5 0.5 L 551.5 919.5 M 565.5 0.5 L 565.5 919.5 M 594.5 0.5 L 594.5 919.5 M 608.5 0.5 L 608.5 919.5 M 622.5 0.5 L 622.5 919.5 M 636.5 0.5 L 636.5 919.5 M 664.5 0.5 L 664.5 919.5 M 678.5 0.5 L 678.5 919.5 M 693.5 0.5 L 693.5 919.5 M 707.5 0.5 L 707.5 919.5 M 735.5 0.5 L 735.5 919.5 M 749.5 0.5 L 749.5 919.5 M 763.5 0.5 L 763.5 919.5 M 777.5 0.5 L 777.5 919.5 M 806.5 0.5 L 806.5 919.5 M 820.5 0.5 L 820.5 919.5 M 834.5 0.5 L 834.5 919.5 M 848.5 0.5 L 848.5 919.5 M 876.5 0.5 L 876.5 919.5 M 890.5 0.5 L 890.5 919.5 M 904.5 0.5 L 904.5 919.5 M 919.5 0.5 L 919.5 919.5 M 947.5 0.5 L 947.5 919.5 M 961.5 0.5 L 961.5 919.5 M 975.5 0.5 L 975.5 919.5 M 989.5 0.5 L 989.5 919.5 M 1017.5 0.5 L 1017.5 919.5 M 1032.5 0.5 L 1032.5 919.5 M 1046.5 0.5 L 1046.5 919.5 M 1060.5 0.5 L 1060.5 919.5 M 1088.5 0.5 L 1088.5 919.5 M 1102.5 0.5 L 1102.5 919.5 M 1116.5 0.5 L 1116.5 919.5 M 1130.5 0.5 L 1130.5 919.5 M 1159.5 0.5 L 1159.5 919.5 M 1173.5 0.5 L 1173.5 919.5 M 1187.5 0.5 L 1187.5 919.5 M 1201.5 0.5 L 1201.5 919.5 M 1229.5 0.5 L 1229.5 919.5 M 1243.5 0.5 L 1243.5 919.5 M 1258.5 0.5 L 1258.5 919.5 M 1272.5 0.5 L 1272.5 919.5 M 1300.5 0.5 L 1300.5 919.5 M 1314.5 0.5 L 1314.5 919.5 M 1328.5 0.5 L 1328.5 919.5 M 1342.5 0.5 L 1342.5 919.5 M 1371.5 0.5 L 1371.5 919.5 M 1385.5 0.5 L 1385.5 919.5 M 1399.5 0.5 L 1399.5 919.5 M 1413.5 0.5 L 1413.5 919.5 M 1441.5 0.5 L 1441.5 919.5 M 1455.5 0.5 L 1455.5 919.5 M 1469.5 0.5 L 1469.5 919.5 M 1484.5 0.5 L 1484.5 919.5 M 1512.5 0.5 L 1512.5 919.5 M 1526.5 0.5 L 1526.5 919.5" stroke-opacity="0.23529411764705882" stroke-linecap="round" stroke-linejoin="round" stroke-miterlimit="10"/><path fill="none" stroke="rgb(192,192,192)" paint-order="fill stroke markers" d=" M 0.5 48.5 L 1530.5 48.5 M 0.5 48.5 L 1530.5 48.5 M 0.5 118.5 L 1530.5 118.5 M 0.5 189.5 L 1530.5 189.5 M 0.5 260.5 L 1530.5 260.5 M 0.5 330.5 L 1530.5 330.5 M 0.5 401.5 L 1530.5 401.5 M 0.5 472.5 L 1530.5 472.5 M 0.5 542.5 L 1530.5 542.5 M 0.5 613.5 L 1530.5 613.5 M 0.5 754.5 L 1530.5 754.5 M 0.5 825.5 L 1530.5 825.5 M 0.5 895.5 L 1530.5 895.5" stroke-opacity="1" stroke-linecap="round" stroke-linejoin="round" stroke-miterlimit="10"/><path fill="none" stroke="rgb(192,192,192)" paint-order="fill stroke markers" d=" M 0.5 5.5 L 1530.5 5.5 M 0.5 5.5 L 1530.5 5.5 M 0.5 20.5 L 1530.5 20.5 M 0.5 34.5 L 1530.5 34.5 M 0.5 62.5 L 1530.5 62.5 M 0.5 76.5 L 1530.5 76.5 M 0.5 90.5 L 1530.5 90.5 M 0.5 104.5 L 1530.5 104.5 M 0.5 133.5 L 1530.5 133.5 M 0.5 147.5 L 1530.5 147.5 M 0.5 161.5 L 1530.5 161.5 M 0.5 175.5 L 1530.5 175.5 M 0.5 203.5 L 1530.5 203.5 M 0.5 217.5 L 1530.5 217.5 M 0.5 231.5 L 1530.5 231.5 M 0.5 246.5 L 1530.5 246.5 M 0.5 274.5 L 1530.5 274.5 M 0.5 288.5 L 1530.5 288.5 M 0.5 302.5 L 1530.5 302.5 M 0.5 316.5 L 1530.5 316.5 M 0.5 344.5 L 1530.5 344.5 M 0.5 359.5 L 1530.5 359.5 M 0.5 373.5 L 1530.5 373.5 M 0.5 387.5 L 1530.5 387.5 M 0.5 415.5 L 1530.5 415.5 M 0.5 429.5 L 1530.5 429.5 M 0.5 443.5 L 1530.5 443.5 M 0.5 457.5 L 1530.5 457.5 M 0.5 486.5 L 1530.5 486.5 M 0.5 500.5 L 1530.5 500.5 M 0.5 514.5 L 1530.5 514.5 M 0.5 528.5 L 1530.5 528.5 M 0.5 556.5 L 1530.5 556.5 M 0.5 570.5 L 1530.5 570.5 M 0.5 585.5 L 1530.5 585.5 M 0.5 599.5 L 1530.5 599.5 M 0.5 627.5 L 1530.5 627.5 M 0.5 641.5 L 1530.5 641.5 M 0.5 655.5 L 1530.5 655.5 M 0.5 669.5 L 1530.5 669.5 M 0.5 698.5 L 1530.5 698.5 M 0.5 712.5 L 1530.5 712.5 M 0.5 726.5 L 1530.5 726.5 M 0.5 740.5 L 1530.5 740.5 M 0.5 768.5 L 1530.5 768.5 M 0.5 782.5 L 1530.5 782.5 M 0.5 796.5 L 1530.5 796.5 M 0.5 811.5 L 1530.5 811.5 M 0.5 839.5 L 1530.5 839.5 M 0.5 853.5 L 1530.5 853.5 M 0.5 867.5 L 1530.5 867.5 M 0.5 881.5 L 1530.5 881.5 M 0.5 909.5 L 1530.5 909.5" stroke-opacity="0.23529411764705882" stroke-linecap="round" stroke-linejoin="round" stroke-miterlimit="10"/><path fill="none" stroke="rgb(0,0,0)" paint-order="fill stroke markers" d=" M 226.5 2.5 L 226.5 919.5" stroke-opacity="1" stroke-miterlimit="10"/><path fill="none" stroke="rgb(0,0,0)" paint-order="fill stroke markers" d=" M 226.5 1.5 L 222.5 5.5" stroke-opacity="1" stroke-miterlimit="10"/><path fill="none" stroke="rgb(0,0,0)" paint-order="fill stroke markers" d=" M 226.5 1.5 L 230.5 5.5" stroke-opacity="1" stroke-miterlimit="10"/><path fill="none" stroke="rgb(0,0,0)" paint-order="fill stroke markers" d=" M 0.5 683.5 L 1528.5 683.5" stroke-opacity="1" stroke-miterlimit="10"/><path fill="none" stroke="rgb(0,0,0)" paint-order="fill stroke markers" d=" M 1529.5 683.5 L 1525.5 679.5" stroke-opacity="1" stroke-miterlimit="10"/><path fill="none" stroke="rgb(0,0,0)" paint-order="fill stroke markers" d=" M 1529.5 683.5 L 1525.5 687.5" stroke-opacity="1" stroke-miterlimit="10"/><text fill="rgb(0,0,0)" stroke="none" font-family="geogebra-sans-serif, sans-serif" font-size="12px" font-style="normal" font-weight="normal" text-decoration="normal" x="4" y="699" text-anchor="start" dominant-baseline="alphabetic" fill-opacity="1">–300</text><text fill="none" stroke="rgb(255,255,255)" font-family="geogebra-sans-serif, sans-serif" font-size="12px" font-style="normal" font-weight="normal" text-decoration="normal" x="4" y="699" text-anchor="start" dominant-baseline="alphabetic" stroke-opacity="1" stroke-linejoin="bevel" stroke-miterlimit="10" stroke-width="3">–300</text><text fill="rgb(0,0,0)" stroke="none" font-family="geogebra-sans-serif, sans-serif" font-size="12px" font-style="normal" font-weight="normal" text-decoration="normal" x="4" y="699" text-anchor="start" dominant-baseline="alphabetic" fill-opacity="1">–300</text><text fill="rgb(0,0,0)" stroke="none" font-family="geogebra-sans-serif, sans-serif" font-size="12px" font-style="normal" font-weight="normal" text-decoration="normal" x="74" y="699" text-anchor="start" dominant-baseline="alphabetic" fill-opacity="1">–200</text><text fill="none" stroke="rgb(255,255,255)" font-family="geogebra-sans-serif, sans-serif" font-size="12px" font-style="normal" font-weight="normal" text-decoration="normal" x="74" y="699" text-anchor="start" dominant-baseline="alphabetic" stroke-opacity="1" stroke-linejoin="bevel" stroke-miterlimit="10" stroke-width="3">–200</text><text fill="rgb(0,0,0)" stroke="none" font-family="geogebra-sans-serif, sans-serif" font-size="12px" font-style="normal" font-weight="normal" text-decoration="normal" x="74" y="699" text-anchor="start" dominant-baseline="alphabetic" fill-opacity="1">–200</text><text fill="rgb(0,0,0)" stroke="none" font-family="geogebra-sans-serif, sans-serif" font-size="12px" font-style="normal" font-weight="normal" text-decoration="normal" x="145" y="699" text-anchor="start" dominant-baseline="alphabetic" fill-opacity="1">–100</text><text fill="none" stroke="rgb(255,255,255)" font-family="geogebra-sans-serif, sans-serif" font-size="12px" font-style="normal" font-weight="normal" text-decoration="normal" x="145" y="699" text-anchor="start" dominant-baseline="alphabetic" stroke-opacity="1" stroke-linejoin="bevel" stroke-miterlimit="10" stroke-width="3">–100</text><text fill="rgb(0,0,0)" stroke="none" font-family="geogebra-sans-serif, sans-serif" font-size="12px" font-style="normal" font-weight="normal" text-decoration="normal" x="145" y="699" text-anchor="start" dominant-baseline="alphabetic" fill-opacity="1">–100</text><text fill="rgb(0,0,0)" stroke="none" font-family="geogebra-sans-serif, sans-serif" font-size="12px" font-style="normal" font-weight="normal" text-decoration="normal" x="289" y="699" text-anchor="start" dominant-baseline="alphabetic" fill-opacity="1">100</text><text fill="none" stroke="rgb(255,255,255)" font-family="geogebra-sans-serif, sans-serif" font-size="12px" font-style="normal" font-weight="normal" text-decoration="normal" x="289" y="699" text-anchor="start" dominant-baseline="alphabetic" stroke-opacity="1" stroke-linejoin="bevel" stroke-miterlimit="10" stroke-width="3">100</text><text fill="rgb(0,0,0)" stroke="none" font-family="geogebra-sans-serif, sans-serif" font-size="12px" font-style="normal" font-weight="normal" text-decoration="normal" x="289" y="699" text-anchor="start" dominant-baseline="alphabetic" fill-opacity="1">100</text><text fill="rgb(0,0,0)" stroke="none" font-family="geogebra-sans-serif, sans-serif" font-size="12px" font-style="normal" font-weight="normal" text-decoration="normal" x="360" y="699" text-anchor="start" dominant-baseline="alphabetic" fill-opacity="1">200</text><text fill="none" stroke="rgb(255,255,255)" font-family="geogebra-sans-serif, sans-serif" font-size="12px" font-style="normal" font-weight="normal" text-decoration="normal" x="360" y="699" text-anchor="start" dominant-baseline="alphabetic" stroke-opacity="1" stroke-linejoin="bevel" stroke-miterlimit="10" stroke-width="3">200</text><text fill="rgb(0,0,0)" stroke="none" font-family="geogebra-sans-serif, sans-serif" font-size="12px" font-style="normal" font-weight="normal" text-decoration="normal" x="360" y="699" text-anchor="start" dominant-baseline="alphabetic" fill-opacity="1">200</text><text fill="rgb(0,0,0)" stroke="none" font-family="geogebra-sans-serif, sans-serif" font-size="12px" font-style="normal" font-weight="normal" text-decoration="normal" x="430" y="699" text-anchor="start" dominant-baseline="alphabetic" fill-opacity="1">300</text><text fill="none" stroke="rgb(255,255,255)" font-family="geogebra-sans-serif, sans-serif" font-size="12px" font-style="normal" font-weight="normal" text-decoration="normal" x="430" y="699" text-anchor="start" dominant-baseline="alphabetic" stroke-opacity="1" stroke-linejoin="bevel" stroke-miterlimit="10" stroke-width="3">300</text><text fill="rgb(0,0,0)" stroke="none" font-family="geogebra-sans-serif, sans-serif" font-size="12px" font-style="normal" font-weight="normal" text-decoration="normal" x="430" y="699" text-anchor="start" dominant-baseline="alphabetic" fill-opacity="1">300</text><text fill="rgb(0,0,0)" stroke="none" font-family="geogebra-sans-serif, sans-serif" font-size="12px" font-style="normal" font-weight="normal" text-decoration="normal" x="501" y="699" text-anchor="start" dominant-baseline="alphabetic" fill-opacity="1">400</text><text fill="none" stroke="rgb(255,255,255)" font-family="geogebra-sans-serif, sans-serif" font-size="12px" font-style="normal" font-weight="normal" text-decoration="normal" x="501" y="699" text-anchor="start" dominant-baseline="alphabetic" stroke-opacity="1" stroke-linejoin="bevel" stroke-miterlimit="10" stroke-width="3">400</text><text fill="rgb(0,0,0)" stroke="none" font-family="geogebra-sans-serif, sans-serif" font-size="12px" font-style="normal" font-weight="normal" text-decoration="normal" x="501" y="699" text-anchor="start" dominant-baseline="alphabetic" fill-opacity="1">400</text><text fill="rgb(0,0,0)" stroke="none" font-family="geogebra-sans-serif, sans-serif" font-size="12px" font-style="normal" font-weight="normal" text-decoration="normal" x="572" y="699" text-anchor="start" dominant-baseline="alphabetic" fill-opacity="1">500</text><text fill="none" stroke="rgb(255,255,255)" font-family="geogebra-sans-serif, sans-serif" font-size="12px" font-style="normal" font-weight="normal" text-decoration="normal" x="572" y="699" text-anchor="start" dominant-baseline="alphabetic" stroke-opacity="1" stroke-linejoin="bevel" stroke-miterlimit="10" stroke-width="3">500</text><text fill="rgb(0,0,0)" stroke="none" font-family="geogebra-sans-serif, sans-serif" font-size="12px" font-style="normal" font-weight="normal" text-decoration="normal" x="572" y="699" text-anchor="start" dominant-baseline="alphabetic" fill-opacity="1">500</text><text fill="rgb(0,0,0)" stroke="none" font-family="geogebra-sans-serif, sans-serif" font-size="12px" font-style="normal" font-weight="normal" text-decoration="normal" x="642" y="699" text-anchor="start" dominant-baseline="alphabetic" fill-opacity="1">600</text><text fill="none" stroke="rgb(255,255,255)" font-family="geogebra-sans-serif, sans-serif" font-size="12px" font-style="normal" font-weight="normal" text-decoration="normal" x="642" y="699" text-anchor="start" dominant-baseline="alphabetic" stroke-opacity="1" stroke-linejoin="bevel" stroke-miterlimit="10" stroke-width="3">600</text><text fill="rgb(0,0,0)" stroke="none" font-family="geogebra-sans-serif, sans-serif" font-size="12px" font-style="normal" font-weight="normal" text-decoration="normal" x="642" y="699" text-anchor="start" dominant-baseline="alphabetic" fill-opacity="1">600</text><text fill="rgb(0,0,0)" stroke="none" font-family="geogebra-sans-serif, sans-serif" font-size="12px" font-style="normal" font-weight="normal" text-decoration="normal" x="713" y="699" text-anchor="start" dominant-baseline="alphabetic" fill-opacity="1">700</text><text fill="none" stroke="rgb(255,255,255)" font-family="geogebra-sans-serif, sans-serif" font-size="12px" font-style="normal" font-weight="normal" text-decoration="normal" x="713" y="699" text-anchor="start" dominant-baseline="alphabetic" stroke-opacity="1" stroke-linejoin="bevel" stroke-miterlimit="10" stroke-width="3">700</text><text fill="rgb(0,0,0)" stroke="none" font-family="geogebra-sans-serif, sans-serif" font-size="12px" font-style="normal" font-weight="normal" text-decoration="normal" x="713" y="699" text-anchor="start" dominant-baseline="alphabetic" fill-opacity="1">700</text><text fill="rgb(0,0,0)" stroke="none" font-family="geogebra-sans-serif, sans-serif" font-size="12px" font-style="normal" font-weight="normal" text-decoration="normal" x="783" y="699" text-anchor="start" dominant-baseline="alphabetic" fill-opacity="1">800</text><text fill="none" stroke="rgb(255,255,255)" font-family="geogebra-sans-serif, sans-serif" font-size="12px" font-style="normal" font-weight="normal" text-decoration="normal" x="783" y="699" text-anchor="start" dominant-baseline="alphabetic" stroke-opacity="1" stroke-linejoin="bevel" stroke-miterlimit="10" stroke-width="3">800</text><text fill="rgb(0,0,0)" stroke="none" font-family="geogebra-sans-serif, sans-serif" font-size="12px" font-style="normal" font-weight="normal" text-decoration="normal" x="783" y="699" text-anchor="start" dominant-baseline="alphabetic" fill-opacity="1">800</text><text fill="rgb(0,0,0)" stroke="none" font-family="geogebra-sans-serif, sans-serif" font-size="12px" font-style="normal" font-weight="normal" text-decoration="normal" x="854" y="699" text-anchor="start" dominant-baseline="alphabetic" fill-opacity="1">900</text><text fill="none" stroke="rgb(255,255,255)" font-family="geogebra-sans-serif, sans-serif" font-size="12px" font-style="normal" font-weight="normal" text-decoration="normal" x="854" y="699" text-anchor="start" dominant-baseline="alphabetic" stroke-opacity="1" stroke-linejoin="bevel" stroke-miterlimit="10" stroke-width="3">900</text><text fill="rgb(0,0,0)" stroke="none" font-family="geogebra-sans-serif, sans-serif" font-size="12px" font-style="normal" font-weight="normal" text-decoration="normal" x="854" y="699" text-anchor="start" dominant-baseline="alphabetic" fill-opacity="1">900</text><text fill="rgb(0,0,0)" stroke="none" font-family="geogebra-sans-serif, sans-serif" font-size="12px" font-style="normal" font-weight="normal" text-decoration="normal" x="922" y="699" text-anchor="start" dominant-baseline="alphabetic" fill-opacity="1">1000</text><text fill="none" stroke="rgb(255,255,255)" font-family="geogebra-sans-serif, sans-serif" font-size="12px" font-style="normal" font-weight="normal" text-decoration="normal" x="922" y="699" text-anchor="start" dominant-baseline="alphabetic" stroke-opacity="1" stroke-linejoin="bevel" stroke-miterlimit="10" stroke-width="3">1000</text><text fill="rgb(0,0,0)" stroke="none" font-family="geogebra-sans-serif, sans-serif" font-size="12px" font-style="normal" font-weight="normal" text-decoration="normal" x="922" y="699" text-anchor="start" dominant-baseline="alphabetic" fill-opacity="1">1000</text><text fill="rgb(0,0,0)" stroke="none" font-family="geogebra-sans-serif, sans-serif" font-size="12px" font-style="normal" font-weight="normal" text-decoration="normal" x="992" y="699" text-anchor="start" dominant-baseline="alphabetic" fill-opacity="1">1100</text><text fill="none" stroke="rgb(255,255,255)" font-family="geogebra-sans-serif, sans-serif" font-size="12px" font-style="normal" font-weight="normal" text-decoration="normal" x="992" y="699" text-anchor="start" dominant-baseline="alphabetic" stroke-opacity="1" stroke-linejoin="bevel" stroke-miterlimit="10" stroke-width="3">1100</text><text fill="rgb(0,0,0)" stroke="none" font-family="geogebra-sans-serif, sans-serif" font-size="12px" font-style="normal" font-weight="normal" text-decoration="normal" x="992" y="699" text-anchor="start" dominant-baseline="alphabetic" fill-opacity="1">1100</text><text fill="rgb(0,0,0)" stroke="none" font-family="geogebra-sans-serif, sans-serif" font-size="12px" font-style="normal" font-weight="normal" text-decoration="normal" x="1063" y="699" text-anchor="start" dominant-baseline="alphabetic" fill-opacity="1">1200</text><text fill="none" stroke="rgb(255,255,255)" font-family="geogebra-sans-serif, sans-serif" font-size="12px" font-style="normal" font-weight="normal" text-decoration="normal" x="1063" y="699" text-anchor="start" dominant-baseline="alphabetic" stroke-opacity="1" stroke-linejoin="bevel" stroke-miterlimit="10" stroke-width="3">1200</text><text fill="rgb(0,0,0)" stroke="none" font-family="geogebra-sans-serif, sans-serif" font-size="12px" font-style="normal" font-weight="normal" text-decoration="normal" x="1063" y="699" text-anchor="start" dominant-baseline="alphabetic" fill-opacity="1">1200</text><text fill="rgb(0,0,0)" stroke="none" font-family="geogebra-sans-serif, sans-serif" font-size="12px" font-style="normal" font-weight="normal" text-decoration="normal" x="1134" y="699" text-anchor="start" dominant-baseline="alphabetic" fill-opacity="1">1300</text><text fill="none" stroke="rgb(255,255,255)" font-family="geogebra-sans-serif, sans-serif" font-size="12px" font-style="normal" font-weight="normal" text-decoration="normal" x="1134" y="699" text-anchor="start" dominant-baseline="alphabetic" stroke-opacity="1" stroke-linejoin="bevel" stroke-miterlimit="10" stroke-width="3">1300</text><text fill="rgb(0,0,0)" stroke="none" font-family="geogebra-sans-serif, sans-serif" font-size="12px" font-style="normal" font-weight="normal" text-decoration="normal" x="1134" y="699" text-anchor="start" dominant-baseline="alphabetic" fill-opacity="1">1300</text><text fill="rgb(0,0,0)" stroke="none" font-family="geogebra-sans-serif, sans-serif" font-size="12px" font-style="normal" font-weight="normal" text-decoration="normal" x="1204" y="699" text-anchor="start" dominant-baseline="alphabetic" fill-opacity="1">1400</text><text fill="none" stroke="rgb(255,255,255)" font-family="geogebra-sans-serif, sans-serif" font-size="12px" font-style="normal" font-weight="normal" text-decoration="normal" x="1204" y="699" text-anchor="start" dominant-baseline="alphabetic" stroke-opacity="1" stroke-linejoin="bevel" stroke-miterlimit="10" stroke-width="3">1400</text><text fill="rgb(0,0,0)" stroke="none" font-family="geogebra-sans-serif, sans-serif" font-size="12px" font-style="normal" font-weight="normal" text-decoration="normal" x="1204" y="699" text-anchor="start" dominant-baseline="alphabetic" fill-opacity="1">1400</text><text fill="rgb(0,0,0)" stroke="none" font-family="geogebra-sans-serif, sans-serif" font-size="12px" font-style="normal" font-weight="normal" text-decoration="normal" x="1275" y="699" text-anchor="start" dominant-baseline="alphabetic" fill-opacity="1">1500</text><text fill="none" stroke="rgb(255,255,255)" font-family="geogebra-sans-serif, sans-serif" font-size="12px" font-style="normal" font-weight="normal" text-decoration="normal" x="1275" y="699" text-anchor="start" dominant-baseline="alphabetic" stroke-opacity="1" stroke-linejoin="bevel" stroke-miterlimit="10" stroke-width="3">1500</text><text fill="rgb(0,0,0)" stroke="none" font-family="geogebra-sans-serif, sans-serif" font-size="12px" font-style="normal" font-weight="normal" text-decoration="normal" x="1275" y="699" text-anchor="start" dominant-baseline="alphabetic" fill-opacity="1">1500</text><text fill="rgb(0,0,0)" stroke="none" font-family="geogebra-sans-serif, sans-serif" font-size="12px" font-style="normal" font-weight="normal" text-decoration="normal" x="1345" y="699" text-anchor="start" dominant-baseline="alphabetic" fill-opacity="1">1600</text><text fill="none" stroke="rgb(255,255,255)" font-family="geogebra-sans-serif, sans-serif" font-size="12px" font-style="normal" font-weight="normal" text-decoration="normal" x="1345" y="699" text-anchor="start" dominant-baseline="alphabetic" stroke-opacity="1" stroke-linejoin="bevel" stroke-miterlimit="10" stroke-width="3">1600</text><text fill="rgb(0,0,0)" stroke="none" font-family="geogebra-sans-serif, sans-serif" font-size="12px" font-style="normal" font-weight="normal" text-decoration="normal" x="1345" y="699" text-anchor="start" dominant-baseline="alphabetic" fill-opacity="1">1600</text><text fill="rgb(0,0,0)" stroke="none" font-family="geogebra-sans-serif, sans-serif" font-size="12px" font-style="normal" font-weight="normal" text-decoration="normal" x="1416" y="699" text-anchor="start" dominant-baseline="alphabetic" fill-opacity="1">1700</text><text fill="none" stroke="rgb(255,255,255)" font-family="geogebra-sans-serif, sans-serif" font-size="12px" font-style="normal" font-weight="normal" text-decoration="normal" x="1416" y="699" text-anchor="start" dominant-baseline="alphabetic" stroke-opacity="1" stroke-linejoin="bevel" stroke-miterlimit="10" stroke-width="3">1700</text><text fill="rgb(0,0,0)" stroke="none" font-family="geogebra-sans-serif, sans-serif" font-size="12px" font-style="normal" font-weight="normal" text-decoration="normal" x="1416" y="699" text-anchor="start" dominant-baseline="alphabetic" fill-opacity="1">1700</text><text fill="rgb(0,0,0)" stroke="none" font-family="geogebra-sans-serif, sans-serif" font-size="12px" font-style="normal" font-weight="normal" text-decoration="normal" x="1487" y="699" text-anchor="start" dominant-baseline="alphabetic" fill-opacity="1">1800</text><text fill="none" stroke="rgb(255,255,255)" font-family="geogebra-sans-serif, sans-serif" font-size="12px" font-style="normal" font-weight="normal" text-decoration="normal" x="1487" y="699" text-anchor="start" dominant-baseline="alphabetic" stroke-opacity="1" stroke-linejoin="bevel" stroke-miterlimit="10" stroke-width="3">1800</text><text fill="rgb(0,0,0)" stroke="none" font-family="geogebra-sans-serif, sans-serif" font-size="12px" font-style="normal" font-weight="normal" text-decoration="normal" x="1487" y="699" text-anchor="start" dominant-baseline="alphabetic" fill-opacity="1">1800</text><text fill="rgb(0,0,0)" stroke="none" font-family="geogebra-sans-serif, sans-serif" font-size="12px" font-style="normal" font-weight="normal" text-decoration="normal" x="190" y="900" text-anchor="start" dominant-baseline="alphabetic" fill-opacity="1">–300</text><text fill="none" stroke="rgb(255,255,255)" font-family="geogebra-sans-serif, sans-serif" font-size="12px" font-style="normal" font-weight="normal" text-decoration="normal" x="190" y="900" text-anchor="start" dominant-baseline="alphabetic" stroke-opacity="1" stroke-linejoin="bevel" stroke-miterlimit="10" stroke-width="3">–300</text><text fill="rgb(0,0,0)" stroke="none" font-family="geogebra-sans-serif, sans-serif" font-size="12px" font-style="normal" font-weight="normal" text-decoration="normal" x="190" y="900" text-anchor="start" dominant-baseline="alphabetic" fill-opacity="1">–300</text><text fill="rgb(0,0,0)" stroke="none" font-family="geogebra-sans-serif, sans-serif" font-size="12px" font-style="normal" font-weight="normal" text-decoration="normal" x="190" y="830" text-anchor="start" dominant-baseline="alphabetic" fill-opacity="1">–200</text><text fill="none" stroke="rgb(255,255,255)" font-family="geogebra-sans-serif, sans-serif" font-size="12px" font-style="normal" font-weight="normal" text-decoration="normal" x="190" y="830" text-anchor="start" dominant-baseline="alphabetic" stroke-opacity="1" stroke-linejoin="bevel" stroke-miterlimit="10" stroke-width="3">–200</text><text fill="rgb(0,0,0)" stroke="none" font-family="geogebra-sans-serif, sans-serif" font-size="12px" font-style="normal" font-weight="normal" text-decoration="normal" x="190" y="830" text-anchor="start" dominant-baseline="alphabetic" fill-opacity="1">–200</text><text fill="rgb(0,0,0)" stroke="none" font-family="geogebra-sans-serif, sans-serif" font-size="12px" font-style="normal" font-weight="normal" text-decoration="normal" x="190" y="759" text-anchor="start" dominant-baseline="alphabetic" fill-opacity="1">–100</text><text fill="none" stroke="rgb(255,255,255)" font-family="geogebra-sans-serif, sans-serif" font-size="12px" font-style="normal" font-weight="normal" text-decoration="normal" x="190" y="759" text-anchor="start" dominant-baseline="alphabetic" stroke-opacity="1" stroke-linejoin="bevel" stroke-miterlimit="10" stroke-width="3">–100</text><text fill="rgb(0,0,0)" stroke="none" font-family="geogebra-sans-serif, sans-serif" font-size="12px" font-style="normal" font-weight="normal" text-decoration="normal" x="190" y="759" text-anchor="start" dominant-baseline="alphabetic" fill-opacity="1">–100</text><text fill="rgb(0,0,0)" stroke="none" font-family="geogebra-sans-serif, sans-serif" font-size="12px" font-style="normal" font-weight="normal" text-decoration="normal" x="196" y="618" text-anchor="start" dominant-baseline="alphabetic" fill-opacity="1">100</text><text fill="none" stroke="rgb(255,255,255)" font-family="geogebra-sans-serif, sans-serif" font-size="12px" font-style="normal" font-weight="normal" text-decoration="normal" x="196" y="618" text-anchor="start" dominant-baseline="alphabetic" stroke-opacity="1" stroke-linejoin="bevel" stroke-miterlimit="10" stroke-width="3">100</text><text fill="rgb(0,0,0)" stroke="none" font-family="geogebra-sans-serif, sans-serif" font-size="12px" font-style="normal" font-weight="normal" text-decoration="normal" x="196" y="618" text-anchor="start" dominant-baseline="alphabetic" fill-opacity="1">100</text><text fill="rgb(0,0,0)" stroke="none" font-family="geogebra-sans-serif, sans-serif" font-size="12px" font-style="normal" font-weight="normal" text-decoration="normal" x="196" y="547" text-anchor="start" dominant-baseline="alphabetic" fill-opacity="1">200</text><text fill="none" stroke="rgb(255,255,255)" font-family="geogebra-sans-serif, sans-serif" font-size="12px" font-style="normal" font-weight="normal" text-decoration="normal" x="196" y="547" text-anchor="start" dominant-baseline="alphabetic" stroke-opacity="1" stroke-linejoin="bevel" stroke-miterlimit="10" stroke-width="3">200</text><text fill="rgb(0,0,0)" stroke="none" font-family="geogebra-sans-serif, sans-serif" font-size="12px" font-style="normal" font-weight="normal" text-decoration="normal" x="196" y="547" text-anchor="start" dominant-baseline="alphabetic" fill-opacity="1">200</text><text fill="rgb(0,0,0)" stroke="none" font-family="geogebra-sans-serif, sans-serif" font-size="12px" font-style="normal" font-weight="normal" text-decoration="normal" x="196" y="477" text-anchor="start" dominant-baseline="alphabetic" fill-opacity="1">300</text><text fill="none" stroke="rgb(255,255,255)" font-family="geogebra-sans-serif, sans-serif" font-size="12px" font-style="normal" font-weight="normal" text-decoration="normal" x="196" y="477" text-anchor="start" dominant-baseline="alphabetic" stroke-opacity="1" stroke-linejoin="bevel" stroke-miterlimit="10" stroke-width="3">300</text><text fill="rgb(0,0,0)" stroke="none" font-family="geogebra-sans-serif, sans-serif" font-size="12px" font-style="normal" font-weight="normal" text-decoration="normal" x="196" y="477" text-anchor="start" dominant-baseline="alphabetic" fill-opacity="1">300</text><text fill="rgb(0,0,0)" stroke="none" font-family="geogebra-sans-serif, sans-serif" font-size="12px" font-style="normal" font-weight="normal" text-decoration="normal" x="196" y="406" text-anchor="start" dominant-baseline="alphabetic" fill-opacity="1">400</text><text fill="none" stroke="rgb(255,255,255)" font-family="geogebra-sans-serif, sans-serif" font-size="12px" font-style="normal" font-weight="normal" text-decoration="normal" x="196" y="406" text-anchor="start" dominant-baseline="alphabetic" stroke-opacity="1" stroke-linejoin="bevel" stroke-miterlimit="10" stroke-width="3">400</text><text fill="rgb(0,0,0)" stroke="none" font-family="geogebra-sans-serif, sans-serif" font-size="12px" font-style="normal" font-weight="normal" text-decoration="normal" x="196" y="406" text-anchor="start" dominant-baseline="alphabetic" fill-opacity="1">400</text><text fill="rgb(0,0,0)" stroke="none" font-family="geogebra-sans-serif, sans-serif" font-size="12px" font-style="normal" font-weight="normal" text-decoration="normal" x="196" y="335" text-anchor="start" dominant-baseline="alphabetic" fill-opacity="1">500</text><text fill="none" stroke="rgb(255,255,255)" font-family="geogebra-sans-serif, sans-serif" font-size="12px" font-style="normal" font-weight="normal" text-decoration="normal" x="196" y="335" text-anchor="start" dominant-baseline="alphabetic" stroke-opacity="1" stroke-linejoin="bevel" stroke-miterlimit="10" stroke-width="3">500</text><text fill="rgb(0,0,0)" stroke="none" font-family="geogebra-sans-serif, sans-serif" font-size="12px" font-style="normal" font-weight="normal" text-decoration="normal" x="196" y="335" text-anchor="start" dominant-baseline="alphabetic" fill-opacity="1">500</text><text fill="rgb(0,0,0)" stroke="none" font-family="geogebra-sans-serif, sans-serif" font-size="12px" font-style="normal" font-weight="normal" text-decoration="normal" x="196" y="265" text-anchor="start" dominant-baseline="alphabetic" fill-opacity="1">600</text><text fill="none" stroke="rgb(255,255,255)" font-family="geogebra-sans-serif, sans-serif" font-size="12px" font-style="normal" font-weight="normal" text-decoration="normal" x="196" y="265" text-anchor="start" dominant-baseline="alphabetic" stroke-opacity="1" stroke-linejoin="bevel" stroke-miterlimit="10" stroke-width="3">600</text><text fill="rgb(0,0,0)" stroke="none" font-family="geogebra-sans-serif, sans-serif" font-size="12px" font-style="normal" font-weight="normal" text-decoration="normal" x="196" y="265" text-anchor="start" dominant-baseline="alphabetic" fill-opacity="1">600</text><text fill="rgb(0,0,0)" stroke="none" font-family="geogebra-sans-serif, sans-serif" font-size="12px" font-style="normal" font-weight="normal" text-decoration="normal" x="196" y="194" text-anchor="start" dominant-baseline="alphabetic" fill-opacity="1">700</text><text fill="none" stroke="rgb(255,255,255)" font-family="geogebra-sans-serif, sans-serif" font-size="12px" font-style="normal" font-weight="normal" text-decoration="normal" x="196" y="194" text-anchor="start" dominant-baseline="alphabetic" stroke-opacity="1" stroke-linejoin="bevel" stroke-miterlimit="10" stroke-width="3">700</text><text fill="rgb(0,0,0)" stroke="none" font-family="geogebra-sans-serif, sans-serif" font-size="12px" font-style="normal" font-weight="normal" text-decoration="normal" x="196" y="194" text-anchor="start" dominant-baseline="alphabetic" fill-opacity="1">700</text><text fill="rgb(0,0,0)" stroke="none" font-family="geogebra-sans-serif, sans-serif" font-size="12px" font-style="normal" font-weight="normal" text-decoration="normal" x="196" y="123" text-anchor="start" dominant-baseline="alphabetic" fill-opacity="1">800</text><text fill="none" stroke="rgb(255,255,255)" font-family="geogebra-sans-serif, sans-serif" font-size="12px" font-style="normal" font-weight="normal" text-decoration="normal" x="196" y="123" text-anchor="start" dominant-baseline="alphabetic" stroke-opacity="1" stroke-linejoin="bevel" stroke-miterlimit="10" stroke-width="3">800</text><text fill="rgb(0,0,0)" stroke="none" font-family="geogebra-sans-serif, sans-serif" font-size="12px" font-style="normal" font-weight="normal" text-decoration="normal" x="196" y="123" text-anchor="start" dominant-baseline="alphabetic" fill-opacity="1">800</text><text fill="rgb(0,0,0)" stroke="none" font-family="geogebra-sans-serif, sans-serif" font-size="12px" font-style="normal" font-weight="normal" text-decoration="normal" x="196" y="53" text-anchor="start" dominant-baseline="alphabetic" fill-opacity="1">900</text><text fill="none" stroke="rgb(255,255,255)" font-family="geogebra-sans-serif, sans-serif" font-size="12px" font-style="normal" font-weight="normal" text-decoration="normal" x="196" y="53" text-anchor="start" dominant-baseline="alphabetic" stroke-opacity="1" stroke-linejoin="bevel" stroke-miterlimit="10" stroke-width="3">900</text><text fill="rgb(0,0,0)" stroke="none" font-family="geogebra-sans-serif, sans-serif" font-size="12px" font-style="normal" font-weight="normal" text-decoration="normal" x="196" y="53" text-anchor="start" dominant-baseline="alphabetic" fill-opacity="1">900</text><text fill="rgb(0,0,0)" stroke="none" font-family="geogebra-sans-serif, sans-serif" font-size="12px" font-style="normal" font-weight="normal" text-decoration="normal" x="211" y="699" text-anchor="start" dominant-baseline="alphabetic" fill-opacity="1">0</text><text fill="none" stroke="rgb(255,255,255)" font-family="geogebra-sans-serif, sans-serif" font-size="12px" font-style="normal" font-weight="normal" text-decoration="normal" x="211" y="699" text-anchor="start" dominant-baseline="alphabetic" stroke-opacity="1" stroke-linejoin="bevel" stroke-miterlimit="10" stroke-width="3">0</text><text fill="rgb(0,0,0)" stroke="none" font-family="geogebra-sans-serif, sans-serif" font-size="12px" font-style="normal" font-weight="normal" text-decoration="normal" x="211" y="699" text-anchor="start" dominant-baseline="alphabetic" fill-opacity="1">0</text><path fill="none" stroke="rgb(0,100,0)" paint-order="fill stroke markers" d=" M 226.95216230651027 683.8827803243171 L 227.10937499999997 683.0970668174108 M 227.10937499999997 683.0970668174108 L 228.60351562499997 675.664625868623 L 230.09765624999997 668.2954052513625 L 231.59179687499997 660.9894049656291 L 233.08593749999997 653.7466250114229 L 234.58007812499997 646.5670653887439 L 236.07421874999997 639.4507260975921 L 237.56835937499997 632.3976071379676 L 239.06249999999997 625.4077085098702 M 239.06249999999997 625.4077085098702 L 240.55664062499997 618.4810302133001 L 242.05078124999997 611.6175722482571 L 243.54492187499997 604.8173346147414 L 245.03906249999997 598.080317312753 L 246.53320312499997 591.4065203422916 L 248.02734374999997 584.7959437033576 L 249.52148437499997 578.2485873959507 L 251.01562499999997 571.764451420071 L 252.50976562499997 565.3435357757185 L 254.00390624999997 558.9858404628933 L 255.49804687499997 552.6913654815952 L 256.9921875 546.4601108318243 L 258.486328125 540.2920765135807 L 259.98046875 534.1872625268643 L 261.474609375 528.1456688716751 L 262.96875 522.167295548013 L 264.462890625 516.2521425558782 L 265.95703125 510.4002098952707 L 267.451171875 504.6114975661902 L 268.9453125 498.8860055686371 L 270.439453125 493.2237339026111 L 271.93359375 487.62468256811235 L 273.427734375 482.0888515651409 L 274.921875 476.6162408936965 L 276.416015625 471.2068505537793 L 277.91015625 465.86068054538936 L 279.404296875 460.57773086852666 L 280.8984375 455.3580015231912 L 282.392578125 450.2014925093828 L 283.88671875 445.10820382710176 L 286.875 435.1112874571212 M 286.875 435.1112874571212 L 289.86328125 425.36725241324945 L 292.8515625 415.8760986954865 L 295.83984375 406.6378263038324 L 298.828125 397.6524352382872 L 301.81640625 388.91992549885083 L 304.8046875 380.44029708552324 L 307.79296875 372.2135499983045 L 310.78125 364.2396842371946 L 313.76953125 356.51869980219345 L 316.7578125 349.05059669330126 L 319.74609375 341.83537491051777 L 322.734375 334.8730344538432 L 325.72265625 328.1635753232775 L 328.7109375 321.7069975188205 L 331.69921875 315.5033010404724 L 334.6875 309.55248588823326 L 337.67578125 303.85455206210275 L 340.6640625 298.4094995620813 L 343.65234375 293.2173283881685 L 346.640625 288.27803854036455 L 352.6171875 279.15810282308325 L 358.59375 271.0496924102371 L 364.5703125 263.9528073018265 L 370.546875 257.8674474978513 L 376.5234375 252.79361299831118 L 382.5 248.7313038032064 M 382.5 248.7313038032064 L 388.4765625 245.68051991253708 L 394.453125 243.64126132630315 L 400.4296875 242.61352804450433 L 406.40625 242.59732006714103 L 412.3828125 243.5926373942129 L 418.359375 245.5994800257202 L 424.3359375 248.61784796166285 L 430.3125 252.64774120204083 L 436.2890625 257.68915974685405 L 442.265625 263.74210359610277 L 448.2421875 270.80657274978665 L 454.21875 278.88256720790594 L 460.1953125 287.97008697046056 L 463.18359375 292.89316884090107 L 466.17187499999994 298.06913203745046 L 469.16015625 303.4979765601087 L 472.1484375 309.17970240887576 L 475.13671875 315.1143095837516 L 478.125 321.3017980847364 L 481.11328124999994 327.7421679118298 L 484.1015625 334.43541906503225 L 487.08984375 341.3815515443435 L 490.07812499999994 348.5805653497635 L 493.06640625 356.03246048129245 L 496.0546875 363.73723693893015 L 499.04296875 371.6948947226767 L 502.03125 379.90543383253214 L 505.01953124999994 388.3688542684962 L 508.0078125 397.08515603056935 L 510.99609375 406.0543391187512 L 513.984375 415.27640353304184 L 516.97265625 424.7513492734415 L 519.9609375 434.47917633994973 L 522.94921875 444.45988473256705 L 524.443359375 449.5450694261664 L 525.9375 454.693474451293 L 527.431640625 459.90509980794695 L 528.92578125 465.1799454961279 L 530.419921875 470.5180115158362 L 531.9140625 475.9192978670717 L 533.408203125 481.3838045498343 L 534.90234375 486.91153156412406 L 536.396484375 492.5024789099414 L 537.890625 498.15664658728554 L 539.384765625 503.87403459615695 L 540.87890625 509.6546429365557 L 542.373046875 515.4984716084816 L 543.8671875 521.4055206119347 L 545.361328125 527.3757899469151 L 546.85546875 533.4092796134227 L 548.349609375 539.5059896114574 L 549.84375 545.6659199410192 L 551.337890625 551.8890706021086 L 552.83203125 558.1754415947248 L 554.326171875 564.5250329188683 L 555.8203125 570.9378445745392 L 557.314453125 577.4138765617372 L 558.80859375 583.9531288804624 L 560.302734375 590.5556015307149 L 561.796875 597.2212945124945 L 563.291015625 603.9502078258013 L 564.78515625 610.7423414706352 L 566.279296875 617.5976954469967 L 567.7734375 624.516269754885 L 569.267578125 631.4980643943005 L 570.76171875 638.5430793652437 L 572.255859375 645.6513146677137 L 573.75 652.8227703017108 M 573.75 652.8227703017108 L 575.244140625 660.0574462672352 L 576.73828125 667.355342564287 L 578.232421875 674.716459192866 L 579.7265625 682.1407961529719 M 579.7265625 682.1407961529719 L 580.0753037480122 683.8827803243169" stroke-opacity="0.6980392156862745" stroke-linecap="round" stroke-linejoin="round" stroke-miterlimit="10" stroke-width="2.5"/><text fill="rgb(0,100,0)" stroke="none" font-family="geogebra-sans-serif, sans-serif" font-size="16px" font-style="normal" font-weight="normal" text-decoration="normal" x="227" y="683" text-anchor="start" dominant-baseline="alphabetic" fill-opacity="1">f</text><text fill="none" stroke="rgb(255,255,255)" font-family="geogebra-sans-serif, sans-serif" font-size="16px" font-style="normal" font-weight="normal" text-decoration="normal" x="227" y="683" text-anchor="start" dominant-baseline="alphabetic" stroke-opacity="1" stroke-linejoin="bevel" stroke-miterlimit="10" stroke-width="3">f</text><text fill="rgb(0,100,0)" stroke="none" font-family="geogebra-sans-serif, sans-serif" font-size="16px" font-style="normal" font-weight="normal" text-decoration="normal" x="227" y="683" text-anchor="start" dominant-baseline="alphabetic" fill-opacity="1">f</text></g></g></svg>